<?xml version="1.0" standalone="no"?>
<!DOCTYPE svg PUBLIC "-//W3C//DTD SVG 1.1//EN" "http://www.w3.org/Graphics/SVG/1.1/DTD/svg11.dtd" >
<!--
2013-9-30: Created.
-->
<svg>
<metadata>
Created by iconfont
</metadata>
<defs>

<font id="font_family" horiz-adv-x="1024" >
  <font-face
    font-family="font_family"
    font-weight="500"
    font-stretch="normal"
    units-per-em="1024"
    ascent="896"
    descent="-128"
  />
    <missing-glyph />
    
    <glyph glyph-name="left" unicode="&#58920;" d="M512 771.072c-214.008832 0.23552-387.692544-173.063168-387.929088-387.072-0.236544-214.001664 173.063168-387.692544 387.072-387.936256C725.151744-4.165632 898.829312 169.13408 899.072 383.142912c0 0.282624 0 0.57344 0 0.857088C898.829312 597.67808 725.67808 770.83648 512 771.072M512 826.368c244.323328 0 442.368-198.05184 442.368-442.368 0-244.323328-198.044672-442.368-442.368-442.368-244.31616 0-442.368 198.044672-442.368 442.368C69.632 628.31616 267.68384 826.368 512 826.368L512 826.368zM474.855424 207.717376c-7.337984-0.013312-14.370816 2.90304-19.54816 8.09984L291.990528 383.432704l163.329024 167.629824c10.610688 10.9824 28.11392 11.285504 39.09632 0.681984 10.9824-10.610688 11.285504-28.11392 0.674816-39.09632-0.222208-0.229376-0.44544-0.458752-0.674816-0.681984L365.855744 383.40608 494.415872 254.845952C505.176064 244.004864 505.10848 226.5088 494.27456 215.73632 489.110528 210.60608 482.130944 207.729664 474.855424 207.717376zM705.806336 356.64896l-355.549184 0c-15.268864 0-27.648 12.393472-27.648 27.655168 0 15.26784 12.379136 27.648 27.648 27.648l355.549184 0c15.282176 0 27.648-12.38016 27.648-27.648C733.454336 369.042432 721.088512 356.64896 705.806336 356.64896z"  horiz-adv-x="1024" />

    
    <glyph glyph-name="right" unicode="&#59034;" d="M512 776.853504C729.197568 777.09312 905.484288 601.204736 905.730048 384c0.233472-217.197568-175.654912-393.483264-392.859648-393.730048-217.204736-0.233472-393.483264 175.654912-393.72288 392.859648 0 0.287744 0 0.582656 0 0.8704C119.387136 600.869888 295.131136 776.613888 512 776.853504M512 832.974848c-247.964672 0-448.974848-201.009152-448.974848-448.974848 0-247.97184 201.010176-448.974848 448.974848-448.974848 247.97184 0 448.974848 201.003008 448.974848 448.974848C960.974848 631.965696 759.97184 832.974848 512 832.974848L512 832.974848zM549.706752 205.083648c7.440384-0.013312 14.578688 2.946048 19.84 8.220672L735.296512 383.424512 569.520128 553.558016c-10.770432 11.14624-28.526592 11.454464-39.68 0.6912-11.140096-10.769408-11.44832-28.53376-0.685056-39.68 0.219136-0.233472 0.464896-0.46592 0.685056-0.692224L660.333568 383.396864 529.840128 252.916736c-10.913792-11.00288-10.845184-28.760064 0.149504-39.694336C535.237632 208.016384 542.308352 205.097984 549.706752 205.083648zM315.292672 356.241408l360.866816 0c15.497216 0 28.060672 12.577792 28.060672 28.06784 0 15.496192-12.56448 28.060672-28.060672 28.060672l-360.866816 0c-15.496192 0-28.060672-12.56448-28.060672-28.060672C287.232 368.8192 299.79648 356.241408 315.292672 356.241408z"  horiz-adv-x="1024" />

    
    <glyph glyph-name="checkboxmarkedcircle" unicode="&#59166;" d="M426.666667 170.666667 213.333333 384 273.493333 444.586667 426.666667 291.413333 750.506667 615.253333 810.666667 554.666667M512 810.666667C276.48 810.666667 85.333333 619.52 85.333333 384 85.333333 148.48 276.48-42.666667 512-42.666667 747.52-42.666667 938.666667 148.48 938.666667 384 938.666667 619.52 747.52 810.666667 512 810.666667Z"  horiz-adv-x="1024" />

    
    <glyph glyph-name="play1" unicode="&#59321;" d="M900.864 366.272l-758.848-421.728q-13.152-7.424-22.56-1.728t-9.44 20.576l0 841.152q0 14.848 9.44 20.576t22.56-1.728l758.848-421.728q13.152-7.424 13.152-17.728t-13.152-17.728z"  horiz-adv-x="1024" />

    
    <glyph glyph-name="duoyun" unicode="&#58880;" d="M603.508015 755.702412l15.238232-86.846322 0.043146 0.00767c0.03164-0.20039 0.054652-0.39982 0.090127-0.60021 2.994337-17.066667 19.258487-28.474487 36.325154-25.48015 17.066667 2.994337 28.474487 19.258487 25.48015 36.325154-0.035476 0.20039-0.081498 0.395985-0.11985 0.594457l0.044105 0.00767-15.239191 86.846322-0.037393-0.006712c-3.164045 16.860524-19.307386 28.085213-36.250367 25.11197-16.942981-2.973243-28.300944-19.022622-25.53576-35.953139L603.508015 755.702412zM1014.528 520.691536c-2.994337 17.066667-19.258487 28.474487-36.325154 25.48015-0.20039-0.035476-0.395985-0.081498-0.595416-0.11985l-0.00767 0.043146-86.846322-15.238232 0.006712-0.037393c-16.860524-3.164045-28.085213-19.307386-25.11197-36.250367 2.973243-16.942981 19.022622-28.300944 35.953139-25.53576l0.006712-0.037393 86.846322 15.239191-0.00767 0.043146c0.20039 0.03164 0.39982 0.054652 0.60021 0.090127C1006.114517 487.361678 1017.522337 503.624869 1014.528 520.691536zM802.257978 627.031251c14.082876-9.878532 33.463131-6.561079 43.47973 7.366472l0.03164-0.022052 50.634307 72.18433-0.036434 0.024929c0.11985 0.163955 0.244494 0.321199 0.360509 0.48803 9.950442 14.185468 6.516974 33.752689-7.668494 43.703131-14.185468 9.950442-33.752689 6.516974-43.703131-7.668494-0.116974-0.166831-0.222442-0.337498-0.335581-0.505288l-0.036434 0.024929-50.634307-72.185288 0.03164-0.022052C784.696569 656.261273 788.175101 636.909783 802.257978 627.031251zM408.890487 620.344569l-0.022052-0.03164 72.185288-50.634307 0.024929 0.036434c0.163955-0.11985 0.321199-0.244494 0.48803-0.360509 14.185468-9.950442 33.752689-6.516974 43.703131 7.668494 9.950442 14.185468 6.516974 33.752689-7.668494 43.703131-0.166831 0.116974-0.337498 0.222442-0.505288 0.335581l0.024929 0.036434-72.185288 50.634307-0.022052-0.03164c-14.159581 9.684854-33.51203 6.206322-43.389603-7.876554C391.645483 649.741423 394.962936 630.36021 408.890487 620.344569zM964.930157 306.347625c-0.166831 0.116974-0.337498 0.222442-0.505288 0.335581l0.025888 0.036434-72.18433 50.634307-0.022052-0.03164c-14.159581 9.684854-33.51203 6.206322-43.389603-7.876554s-6.561079-33.463131 7.366472-43.47973l-0.022052-0.03164 72.185288-50.634307 0.024929 0.036434c0.163955-0.11985 0.321199-0.244494 0.48803-0.360509 14.185468-9.950442 33.752689-6.516974 43.703131 7.668494C982.549094 276.829963 979.115625 296.396225 964.930157 306.347625zM788.77627 360.652225c32.279011 32.199431 48.856689 79.109753 40.378966 127.424719C815.356165 566.717843 740.419116 619.282217 661.779176 605.483146c-50.154906-8.800839-89.691086-42.473948-108.180614-86.112839-39.763416 22.61621-85.759041 35.537019-134.77585 35.537019-112.359071 0-208.850936-67.873558-250.753438-164.849618C74.668584 370.283386 4.575401 287.37582 4.575401 188.085213c0-114.026427 92.436135-206.462562 206.462562-206.462562 2.62424 0 5.236015 0.05561 7.837243 0.152449l436.798322 0 0 0.280929c116.188524 2.617528 209.572914 97.616539 209.572914 214.433079C865.246442 262.376989 835.52839 321.309723 788.77627 360.652225zM670.466876 555.970637c51.29588 9.00027 100.174622-25.285513 109.17585-76.581393 6.198652-35.327041-8.140225-69.501603-34.421933-90.298007-26.02379 12.786577-55.012195 20.461783-85.662202 21.700554-16.385918 30.530157-38.411506 57.578906-64.678831 79.763655C605.459176 528.642876 636.850337 550.07209 670.466876 555.970637zM655.673528 50.450217c0 0-15.670652-0.363386-19.610367 0.089169L210.672659 50.539386c-0.083416 0-0.164914-0.003835-0.24833-0.003835-0.092045 0-0.18409 0.002876-0.276135 0.003835l-1.220554 0 0 0.015341c-77.96015 0.803476-135.159371 58.486891-135.159371 136.636884 0 78.650487 58.005573 136.65606 136.65606 136.65606 0.868674 0 1.732554-0.017258 2.597393-0.032599 5.210127 22.639221 19.811715 49.638112 31.642367 68.853453-0.035476 0.004794-0.070951 0.010547-0.107386 0.015341 12.278412 19.901843 22.012165 31.860974 39.98394 46.66391 0.108345 0.089169 0.218607 0.176419 0.326951 0.265588 0.953049 0.781423 1.913768 1.554217 2.88024 2.319341 0.492824 0.391191 0.986607 0.781423 1.483266 1.168779 0.434337 0.337498 0.872509 0.670202 1.309723 1.003865 35.641528 27.340225 80.227715 43.600539 128.618427 43.600539 94.637543 0 174.751161-62.15239 201.770187-147.862532 10.529558 2.29633 21.460854 3.517843 32.67979 3.517843 10.501753 0 20.755176-1.061393 30.659596-3.080629-0.001918 0.006712-0.002876 0.014382-0.004794 0.021094 3.667416-0.7517 7.283056-1.643386 10.849798-2.653004 0.228195-0.06424 0.45639-0.130397 0.684584-0.195596 0.834157-0.240659 1.666397-0.48803 2.494801-0.742112 0.434337-0.132315 0.867715-0.266547 1.300135-0.402697 0.568569-0.180255 1.133303-0.365303 1.698996-0.551311 0.634727-0.20806 1.268494-0.417079 1.899386-0.633768 0.212854-0.072869 0.42379-0.149573 0.635685-0.223401 59.643206-20.768599 96.697049-71.730816 96.697049-138.451895C800.522547 112.820255 739.035566 51.557633 655.673528 50.450217z"  horiz-adv-x="1024" />

    
    <glyph glyph-name="leizhenyu" unicode="&#58881;" d="M974.609258 459.476854c0 123.914547-97.954037 224.933873-220.651865 229.892794-49.386906 92.019056-146.504869 154.60003-258.250307 154.60003-120.532854 0-224.045064-72.811386-268.995596-176.842307C126.515775 645.914846 51.322727 556.974502 51.322727 450.461243c0-122.321978 99.161169-221.483146 221.483146-221.483146 2.815041 0 5.616659 0.059446 8.406772 0.163955l23.081228 0 42.337798 67.595506-74.218906 0c-0.089169 0-0.177378-0.003835-0.266547-0.003835-0.098757 0-0.196554 0.003835-0.29627 0.003835l-1.308764 0 0 0.0163c-83.631461 0.861963-151.163685 68.912899-151.163685 152.748584 0 84.371655 68.397064 152.768719 152.768719 152.768719 0.931955 0 1.859116-0.018217 2.786277-0.035476 5.589813 24.286442 15.081948 47.078112 27.772644 67.691386-0.038352 0.004794-0.076704 0.011506-0.115056 0.017258 13.172015 21.349633 29.785169 40.350202 49.064749 56.229873 0.116015 0.09588 0.233948 0.188884 0.349963 0.284764 1.022082 0.838951 2.052794 1.667356 3.089258 2.48809 0.529258 0.419955 1.058517 0.838951 1.590652 1.254112 0.465978 0.362427 0.936749 0.719101 1.404644 1.077693 38.234127 29.328779 86.06394 46.773213 137.975371 46.773213 101.522697 0 187.464869-66.674097 216.449438-158.620285 11.29564 2.46412 23.022742 3.773843 35.056659 3.773843 11.265918 0 22.265288-1.139056 32.890727-3.304989-0.001918 0.00767-0.003835 0.015341-0.004794 0.022052 3.933963-0.806352 7.813273-1.763236 11.638891-2.845723 0.245453-0.069034 0.489948-0.139985 0.734442-0.209978 0.895521-0.257918 1.787206-0.523506 2.676974-0.795805 0.465978-0.141903 0.930996-0.285723 1.395056-0.432419 0.609798-0.192719 1.21576-0.39215 1.822682-0.591581 0.680749-0.223401 1.360539-0.44776 2.037453-0.67979 0.228195-0.078622 0.454472-0.161079 0.681708-0.2397 63.982742-22.27967 109.902622-83.121378 109.902622-154.696869 0-89.709303-72.131596-161.60024-161.559011-162.788195 0 0-16.810667-0.390232-21.037064 0.094921L614.562996 296.737558l-38.28015-67.595506 76.214172 0c-1.2637-5.224509-1.950202-10.674337-1.950202-16.287161 0-38.126742 30.906966-69.033708 69.033708-69.033708s69.033708 30.906966 69.033708 69.033708c0 7.029933-1.057558 13.811536-3.010637 20.201948C893.073738 252.433258 974.609258 346.424569 974.609258 459.476854zM580.554307 299.146067 478.921348 299.146067 528.779026 499.535581 340.853933 225.318352 428.104869 225.318352 428.104869 76.70412ZM326.47191 90.127341c0 0-68.235026-47.940075-68.554307-99.235955l0.180255 0c-0.002876-0.267506-0.020135-0.531176-0.020135-0.798682 0-37.772944 30.621243-68.394187 68.394187-68.394187s68.394187 30.621243 68.394187 68.394187c0 0.267506-0.017258 0.532135-0.020135 0.798682l0.020135 0C394.866097-9.108614 402.696629 35.955056 326.47191 90.127341zM634.007491 100.913858c0 0-69.273408-39.310861-67.835206-94.681648l0.030682 0c0.642397-37.173693 30.956824-67.116105 68.283925-67.116105s67.642487 29.942412 68.283925 67.116105L702.801498 6.23221C702.801498 6.23221 707.595506 62.641378 634.007491 100.913858z"  horiz-adv-x="1024" />

    
    <glyph glyph-name="qing" unicode="&#58882;" d="M515.995326 583.630142c-110.406951 0-199.910112-89.503161-199.910112-199.910112s89.503161-199.910112 199.910112-199.910112 199.910112 89.503161 199.910112 199.910112S626.402277 583.630142 515.995326 583.630142zM515.995326 253.323026c-72.016539 0-130.397004 58.380464-130.397004 130.397004s58.380464 130.397004 130.397004 130.397004 130.397004-58.380464 130.397004-130.397004S588.010906 253.323026 515.995326 253.323026zM472.569288 679.390442c0-23.961408 19.42436-43.385768 43.385768-43.385768s43.385768 19.42436 43.385768 43.385768c0 0.280929-0.0163 0.558981-0.021094 0.838951l0.061363 0L559.381094 802.157303l-0.052734 0c-0.27997 23.720749-19.585438 42.866097-43.372345 42.866097s-43.093333-19.145348-43.372345-42.866097l-0.052734 0 0-121.92791 0.061363 0C472.585588 679.949423 472.569288 679.67233 472.569288 679.390442zM515.955056 131.675086c-23.786906 0-43.093333-19.145348-43.372345-42.866097l-0.052734 0 0-121.92791 0.061363 0c-0.005753-0.27997-0.021094-0.558022-0.021094-0.838951 0-23.961408 19.42436-43.385768 43.385768-43.385768s43.385768 19.42436 43.385768 43.385768c0 0.280929-0.0163 0.558981-0.021094 0.838951l0.061363 0L559.382052 88.808989l-0.052734 0C559.04839 112.529738 539.741963 131.675086 515.955056 131.675086zM218.606742 340.414801l0 0.061363c0.27997-0.005753 0.558022-0.021094 0.838951-0.021094 23.961408 0 43.385768 19.42436 43.385768 43.385768s-19.42436 43.385768-43.385768 43.385768c-0.280929 0-0.558981-0.0163-0.838951-0.021094l0 0.061363L96.678831 427.266876l0-0.052734c-23.720749-0.27997-42.866097-19.585438-42.866097-43.372345s19.145348-43.093333 42.866097-43.372345l0-0.052734L218.606742 340.416719zM932.794007 427.225648c-0.280929 0-0.558981-0.0163-0.838951-0.021094l0 0.061363L810.027146 427.265918l0-0.052734c-23.720749-0.27997-42.866097-19.585438-42.866097-43.372345s19.145348-43.093333 42.866097-43.372345l0-0.052734L931.955056 340.41576l0 0.061363c0.27997-0.005753 0.558022-0.021094 0.838951-0.021094 23.961408 0 43.385768 19.42436 43.385768 43.385768S956.755416 427.225648 932.794007 427.225648zM263.826697 193.068105c-0.199431-0.199431-0.383521-0.406532-0.578157-0.60788l-0.043146 0.043146-86.215431-86.215431 0.037393-0.037393c-16.57576-16.970787-16.461663-44.160479 0.357633-60.979775 16.820255-16.820255 44.008989-16.933393 60.979775-0.357633l0.037393-0.037393 86.215431 86.215431-0.043146 0.043146c0.201348 0.194637 0.409408 0.379685 0.60788 0.578157 16.942981 16.942981 16.942981 44.413603 0 61.356584C308.2403 210.011086 280.769678 210.011086 263.826697 193.068105zM712.47964 579.405663c16.820255-16.820255 44.008989-16.933393 60.979775-0.357633l0.037393-0.037393 86.215431 86.215431-0.043146 0.043146c0.202307 0.194637 0.409408 0.379685 0.60788 0.578157 16.942981 16.942981 16.942981 44.413603 0 61.356584-16.942981 16.942981-44.413603 16.942981-61.356584 0-0.199431-0.199431-0.383521-0.406532-0.578157-0.60788l-0.043146 0.043146-86.215431-86.215431 0.037393-0.037393C695.546247 623.41561 695.659386 596.225918 712.47964 579.405663zM175.071401 664.27206l86.215431-86.215431 0.043146 0.043146c0.194637-0.201348 0.379685-0.409408 0.578157-0.60788 16.942981-16.942981 44.413603-16.942981 61.356584 0 16.942981 16.942981 16.942981 44.413603 0 61.356584-0.199431 0.199431-0.406532 0.383521-0.60788 0.578157l0.043146 0.043146-86.215431 86.215431-0.037393-0.037393c-16.970787 16.57576-44.160479 16.461663-60.979775-0.357633-16.820255-16.820255-16.933393-44.008989-0.357633-60.979775L175.071401 664.27206zM856.792689 104.331026l0.043146 0.043146-86.215431 86.215431-0.037393-0.037393c-16.970787 16.57576-44.160479 16.461663-60.979775-0.357633-16.820255-16.820255-16.933393-44.008989-0.357633-60.980734l-0.037393-0.037393 86.215431-86.215431 0.043146 0.043146c0.194637-0.202307 0.379685-0.409408 0.578157-0.60788 16.942981-16.942981 44.413603-16.942981 61.356584 0 16.942981 16.942981 16.942981 44.413603 0 61.356584C857.202097 103.951341 856.994996 104.13639 856.792689 104.331026z"  horiz-adv-x="1024" />

    
    <glyph glyph-name="shachen" unicode="&#58883;" d="M233.897708 323.425798c9.398172 0 18.006292 3.380734 24.675715 8.99164 8.361708 7.035685 13.676345 17.577708 13.676345 29.360419 0 12.519071-5.999221 23.638292-15.278502 30.637543-6.420135 4.842906-14.411745 7.714517-23.073558 7.714517-9.812375 0-18.764704-3.685633-25.547266-9.747176-7.858337-7.023221-12.804794-17.236375-12.804794-28.604884 0-7.942712 2.414262-15.321648 6.549573-21.442637C208.988045 330.132614 220.659536 323.425798 233.897708 323.425798zM385.341363 334.978397c6.940764 6.940764 11.233318 16.528779 11.233318 27.118742 0 11.671491-5.213963 22.125303-13.438562 29.159071-6.702022 5.731715-15.403146 9.192989-24.913498 9.192989-11.154697 0-21.197184-4.762367-28.206022-12.364704-6.299326-6.833378-10.146037-15.961169-10.146037-25.987356 0-10.590921 4.292554-20.178936 11.233318-27.118742 6.940764-6.940764 16.528779-11.233318 27.118742-11.233318S378.401558 328.037633 385.341363 334.978397zM483.186097 323.425798c10.887191 0 20.714906 4.53609 27.69594 11.822022 6.60039 6.888989 10.65612 16.235386 10.65612 26.530037 0 11.097169-4.713468 21.093633-12.24773 28.096719-6.845843 6.363566-16.020614 10.255341-26.10433 10.255341-10.590921 0-20.178936-4.292554-27.118742-11.233318s-11.233318-16.528779-11.233318-27.118742c0-9.972494 3.806442-19.05618 10.045363-25.877094C461.892075 328.234187 471.977708 323.425798 483.186097 323.425798zM607.511011 323.745079c10.018517 0 19.140554 3.841918 25.972015 10.132614 7.611925 7.008839 12.380045 17.057079 12.380045 28.219446 0 11.296599-4.884135 21.452225-12.655221 28.470652-6.800779 6.141124-15.811596 9.881408-25.696839 9.881408-9.830592 0-18.797303-3.699056-25.584659-9.780734-7.836285-7.022262-12.767401-17.221034-12.767401-28.571326 0-10.135491 3.932045-19.352449 10.353139-26.209798C586.510382 328.414442 596.465618 323.745079 607.511011 323.745079zM119.127251 283.747715c-6.940764 6.940764-16.528779 11.233318-27.118742 11.233318-11.482607 0-21.786846-5.046172-28.81582-13.042577-5.93594-6.753798-9.53624-15.611206-9.53624-25.309483 0-10.590921 4.292554-20.178936 11.233318-27.118742s16.528779-11.233318 27.118742-11.233318c9.685813 0 18.532674 3.590712 25.283596 9.513228 8.011745 7.028974 13.068464 17.34376 13.068464 28.838831C130.360569 267.218936 126.068015 276.806951 119.127251 283.747715zM188.309573 282.146517c-6.217828-6.81612-10.008929-15.884464-10.008929-25.837783 0-9.934142 3.776719-18.985228 9.972494-25.797513 7.015551-7.712599 17.131865-12.554547 28.379566-12.554547 10.427925 0 19.882667 4.161199 26.796584 10.914037 7.129648 6.963775 11.555476 16.684105 11.555476 27.438022 0 10.438472-4.169828 19.901843-10.935131 26.817678-6.962816 7.117184-16.674517 11.534382-27.416929 11.534382C205.42418 294.660794 195.323206 289.836105 188.309573 282.146517zM303.080989 256.510082c0-16.001438 12.971625-28.974022 28.974022-28.974022 0.684584 0 1.360539 0.032599 2.033618 0.078622l447.187895 0 0 0.030682c44.903551 0.202307 81.245004 36.656899 81.245004 81.60839 0 44.486472-35.597423 80.634247-79.858577 81.573873l0 0.035476-1.405603 0c-0.118891 0.000959-0.234906 0.008629-0.353798 0.008629-0.121768 0-0.240659-0.008629-0.362427-0.008629l-55.611446 0c-0.715266 0.052734-1.435326 0.089169-2.164015 0.089169-16.001438 0-28.974022-12.971625-28.974022-28.974022s12.971625-28.974022 28.974022-28.974022c0.151491 0 0.300105 0.008629 0.451596 0.011506l0-0.04027 56.707356 0 0-0.015341c0.207101 0.008629 0.41612 0.011506 0.625139 0.015341l0.707596 0c12.941903-0.189843 23.376539-10.733783 23.376539-23.721708 0-13.105858-10.624479-23.730337-23.730337-23.730337-0.32791 0-0.653903 0.011506-0.978936 0.024929l0-0.405573L336.50385 285.142772c-1.450667 0.223401-2.936809 0.340375-4.449798 0.340375C316.052614 285.484105 303.080989 272.511521 303.080989 256.510082zM185.893393 180.203865c-6.554367 5.226427-14.858547 8.349243-23.892375 8.349243-11.937079 0-22.600869-5.453663-29.634637-14.005213-5.446951-6.622442-8.717423-15.102082-8.717423-24.346846 0-10.590921 4.292554-20.178936 11.233318-27.118742s16.528779-11.233318 27.118742-11.233318c10.190142 0 19.452165 3.974232 26.32006 10.456689 7.408659 6.992539 12.032 16.90367 12.032 27.895371C200.353079 162.348105 194.705738 173.176809 185.893393 180.203865zM310.942202 179.292045c-6.660794 5.581184-15.246861 8.941783-24.61627 8.941783-11.778876 0-22.318022-5.309843-29.353708-13.667715-5.6157-6.670382-8.998352-15.282337-8.998352-24.684345 0-9.355026 3.350052-17.928629 8.914936-24.584629 7.034727-8.414442 17.611266-13.767431 29.437124-13.767431 9.327221 0 17.876854 3.329918 24.525184 8.865079 8.448959 7.034727 13.826876 17.633318 13.826876 29.486981C324.677034 161.692285 319.338427 172.25636 310.942202 179.292045zM432.619865 181.095551c-6.282067 4.493903-13.976449 7.138277-22.289258 7.138277-11.80764 0-22.36788-5.33573-29.403566-13.727161-5.585978-6.662712-8.948494-15.250697-8.948494-24.624899 0-9.210247 3.246502-17.661124 8.657019-24.273019 7.032809-8.593738 17.723446-14.079041 29.695041-14.079041 10.01564 0 19.133843 3.839041 25.965303 10.125903 7.61576 7.008839 12.386757 17.059955 12.386757 28.226157C448.682667 162.749843 442.34403 174.138487 432.619865 181.095551zM885.665079 178.877843l0 0.099715L528.724375 178.977558c-0.67212 0.046981-1.349034 0.078622-2.033618 0.078622-16.001438 0-28.974022-12.971625-28.974022-28.974022s12.971625-28.974022 28.974022-28.974022c1.512989 0 2.999131 0.116974 4.449798 0.340375l350.417019 0 0-0.405573c0.325034 0.013423 0.650067 0.024929 0.978936 0.024929 13.105858 0 23.730337-10.624479 23.730337-23.730337 0-12.986966-10.434637-23.531865-23.376539-23.721708l-0.707596 0c-0.20806 0.004794-0.417079 0.00767-0.625139 0.015341l0-0.015341-27.943311 0 0-0.04027c-0.150532 0.001918-0.300105 0.011506-0.451596 0.011506-16.001438 0-28.974022-12.971625-28.974022-28.974022s12.971625-28.974022 28.974022-28.974022c0.728689 0 1.448749 0.036434 2.164015 0.089169l26.847401 0c0.120809-0.000959 0.240659-0.008629 0.362427-0.008629 0.118891 0 0.235865 0.008629 0.353798 0.008629l1.405603 0 0 0.035476c44.261154 0.939625 79.858577 37.087401 79.858577 81.573873C964.154487 141.365693 929.289588 177.230622 885.665079 178.877843zM760.543401 76.025288c-6.341513 4.63964-14.162457 7.378936-22.621963 7.378936-10.911161 0-20.759011-4.557184-27.742921-11.87188-6.572584-6.884195-10.609139-16.211416-10.609139-26.48018 0-9.4557 3.421963-18.11176 9.095191-24.798442 7.034727-8.291715 17.531685-13.553618 29.256869-13.553618 9.597603 0 18.371596 3.525513 25.098547 9.35215 8.118172 7.03185 13.253513 17.416629 13.253513 28.99991C776.272539 57.773543 770.07964 69.04809 760.543401 76.025288zM635.881948 76.17582c-6.221663 4.354876-13.795236 6.909124-21.966142 6.909124-10.348345 0-19.739805-4.098876-26.639341-10.761588-7.221693-6.974322-11.712719-16.757933-11.712719-27.590472 0-10.176719 3.963685-19.428195 10.43176-26.293213 6.993498-7.424 16.916135-12.058846 27.9203-12.058846 9.342562 0 17.904659 3.340464 24.557783 8.891925 8.430742 7.034727 13.794277 17.620854 13.794277 29.460135C652.267865 57.74382 645.789243 69.241768 635.881948 76.17582zM488.63209 82.765663c-9.787446 0-18.718682-3.666457-25.494532-9.700195-7.889019-7.02418-12.857528-17.258427-12.857528-28.651865 0-11.546846 5.1037-21.902861 13.177768-28.933753 6.736539-5.865948 15.540255-9.418307 25.174292-9.418307 10.926502 0 20.785858 4.569648 27.771685 11.901603 6.556285 6.881318 10.580375 16.196075 10.580375 26.450457 0 9.458577-3.42388 18.116554-9.099026 24.804195C510.850397 77.505678 500.355356 82.765663 488.63209 82.765663zM388.786337 73.670472c-6.686682 5.673228-15.342742 9.095191-24.798442 9.095191-11.581363 0-21.964225-5.133423-28.996075-13.249678-5.828554-6.726951-9.355985-15.502861-9.355985-25.102382 0-9.926472 3.770966-18.971805 9.958112-25.782172 7.015551-7.722187 17.138577-12.569888 28.393948-12.569888 9.267775 0 17.767551 3.286772 24.396704 8.758652 8.522787 7.034727 13.955356 17.679341 13.955356 29.593408C402.339955 56.138787 397.078052 66.635745 388.786337 73.670472zM264.436494 74.011805c-6.682846 5.659805-15.329318 9.073139-24.772554 9.073139-10.590921 0-20.178936-4.292554-27.118742-11.233318-6.940764-6.940764-11.233318-16.528779-11.233318-27.118742 0-9.592809 3.521678-18.362966 9.342562-25.088 7.032809-8.124884 17.420464-13.26406 29.009498-13.26406 10.095221 0 19.279581 3.900404 26.127341 10.276434 7.520839 7.002127 12.224719 16.989963 12.224719 28.075625C278.016 56.470532 272.742592 66.977079 264.436494 74.011805zM754.217228 609.549423c-49.386906 92.019056-146.504869 154.60003-258.250307 154.60003-120.532854 0-224.045064-72.811386-268.995596-176.842307C126.77561 566.095581 51.582562 477.155236 51.582562 370.641019c0-3.011596 0.077663-6.004974 0.196554-8.987805l68.068195 0c-0.138067 2.658757-0.209978 5.33573-0.209978 8.029004 0 84.371655 68.397064 152.768719 152.768719 152.768719 0.931955 0 1.859116-0.018217 2.786277-0.035476 5.589813 24.286442 15.081948 47.078112 27.772644 67.691386-0.038352 0.004794-0.076704 0.011506-0.115056 0.017258 13.172015 21.349633 29.785169 40.350202 49.064749 56.229873 0.116015 0.09588 0.233948 0.188884 0.349963 0.284764 1.022082 0.838951 2.052794 1.667356 3.089258 2.48809 0.529258 0.419955 1.058517 0.838951 1.590652 1.254112 0.465978 0.362427 0.936749 0.719101 1.404644 1.077693 38.234127 29.328779 86.06394 46.773213 137.975371 46.773213 101.522697 0 187.464869-66.674097 216.449438-158.620285 11.29564 2.46412 23.022742 3.773843 35.056659 3.773843 11.265918 0 22.265288-1.139056 32.890727-3.304989-0.001918 0.00767-0.003835 0.015341-0.004794 0.022052 3.933963-0.806352 7.813273-1.763236 11.638891-2.845723 0.245453-0.069034 0.489948-0.139985 0.734442-0.209978 0.895521-0.257918 1.787206-0.523506 2.676974-0.795805 0.465978-0.141903 0.930996-0.285723 1.395056-0.432419 0.609798-0.192719 1.21576-0.39215 1.822682-0.591581 0.680749-0.223401 1.360539-0.44776 2.037453-0.67979 0.228195-0.078622 0.454472-0.161079 0.681708-0.2397 63.982742-22.27967 109.902622-83.121378 109.902622-154.696869 0-6.074007-0.341333-12.062682-0.985648-17.956434l63.547446 0c0.460225 5.941693 0.699925 11.94379 0.699925 18.003416C974.869094 503.572135 876.915056 604.591461 754.217228 609.549423z"  horiz-adv-x="1024" />

    
    <glyph glyph-name="wu" unicode="&#58884;" d="M474.474427 681.314757c0-23.961408 19.42436-43.385768 43.385768-43.385768s43.385768 19.42436 43.385768 43.385768c0 0.280929-0.0163 0.558981-0.021094 0.838951l0.061363 0L561.286232 804.081618l-0.052734 0c-0.27997 23.720749-19.585438 42.866097-43.372345 42.866097s-43.093333-19.145348-43.372345-42.866097l-0.052734 0 0-121.92791 0.061363 0C474.489768 681.873738 474.474427 681.595685 474.474427 681.314757zM220.51188 342.338157l0 0.061363c0.27997-0.005753 0.558022-0.021094 0.838951-0.021094 23.961408 0 43.385768 19.42436 43.385768 43.385768s-19.42436 43.385768-43.385768 43.385768c-0.280929 0-0.558981-0.0163-0.838951-0.021094l0 0.061363L98.58397 429.190232l0-0.052734c-23.720749-0.27997-42.866097-19.585438-42.866097-43.372345s19.145348-43.093333 42.866097-43.372345l0-0.052734L220.51188 342.340075zM811.932285 429.190232l0-0.052734c-23.720749-0.27997-42.866097-19.585438-42.866097-43.372345s19.145348-43.093333 42.866097-43.372345l0-0.052734 121.92791 0 0 0.061363c0.27997-0.005753 0.558022-0.021094 0.838951-0.021094 23.961408 0 43.385768 19.42436 43.385768 43.385768s-19.42436 43.385768-43.385768 43.385768c-0.280929 0-0.558981-0.0163-0.838951-0.021094l0 0.061363L811.932285 429.19215zM714.384779 581.329978c16.820255-16.820255 44.008989-16.933393 60.979775-0.357633l0.037393-0.037393 86.215431 86.215431-0.043146 0.043146c0.202307 0.194637 0.409408 0.379685 0.60788 0.578157 16.942981 16.942981 16.942981 44.413603 0 61.356584-16.942981 16.942981-44.413603 16.942981-61.356584 0-0.199431-0.198472-0.383521-0.406532-0.578157-0.60788l-0.043146 0.043146-86.215431-86.215431 0.037393-0.037393C697.451386 625.338966 697.564524 598.150232 714.384779 581.329978zM176.975581 666.195416l86.215431-86.215431 0.043146 0.043146c0.194637-0.201348 0.379685-0.409408 0.578157-0.60788 16.942981-16.942981 44.413603-16.942981 61.356584 0 16.942981 16.942981 16.942981 44.413603 0 61.356584-0.198472 0.198472-0.406532 0.383521-0.60788 0.578157l0.043146 0.043146-86.215431 86.215431-0.037393-0.037393c-16.970787 16.57576-44.160479 16.461663-60.979775-0.357633-16.820255-16.820255-16.933393-44.008989-0.357633-60.979775L176.975581 666.195416zM327.387566 324.933993l75.091416 0c-9.558292 18.133813-14.976479 38.787356-14.976479 60.710352 0 72.016539 58.380464 130.397004 130.397004 130.397004s130.397004-58.380464 130.397004-130.397004c0-21.922996-5.418187-42.576539-14.976479-60.710352l75.091416 0c6.097019 19.147266 9.397213 39.541933 9.397213 60.710352 0 110.406951-89.503161 199.910112-199.910112 199.910112s-199.910112-89.503161-199.910112-199.910112C317.990352 364.475925 321.290547 344.081258 327.387566 324.933993zM814.466397 204.70412l0 0.231071c23.579805 0.639521 42.501753 19.940195 42.501753 43.674367 0 24.137828-19.567221 43.705049-43.705049 43.705049-0.5283 0-1.051805-0.021094-1.575311-0.04027L145.594966 292.274337c-0.523506 0.018217-1.047011 0.04027-1.575311 0.04027-24.137828 0-43.705049-19.567221-43.705049-43.705049 0-23.641169 18.774292-42.885273 42.224659-43.667655L142.539266 204.70412 814.466397 204.70412zM930.244554 175.329318c-0.5283 0-1.051805-0.021094-1.575311-0.04027L275.133843 175.289049l0-0.001918c-0.554187 0.021094-1.109333 0.042187-1.668315 0.042187-24.137828 0-43.705049-19.567221-43.705049-43.705049 0-24.137828 19.567221-43.705049 43.705049-43.705049 0.55994 0 1.114127 0.021094 1.668315 0.042187l0-0.242577 656.314007 0 0 0.231071c23.579805 0.639521 42.501753 19.940195 42.501753 43.674367C973.949603 155.762097 954.382382 175.329318 930.244554 175.329318zM815.625588 58.300884l0 0.014382-0.586787 0c-0.523506 0.018217-1.047011 0.04027-1.575311 0.04027s-1.051805-0.021094-1.575311-0.04027L210.036015 58.315266c-0.523506 0.018217-1.047011 0.04027-1.575311 0.04027-24.137828 0-43.705049-19.567221-43.705049-43.705049 0-23.962367 19.287251-43.410697 43.183461-43.691625l0-0.213813 607.687431 0 0 0.255041C838.758592-27.87236 857.168539-8.761528 857.168539 14.650487 857.168539 38.063461 838.758592 57.174292 815.625588 58.300884z"  horiz-adv-x="1024" />

    
    <glyph glyph-name="wumai" unicode="&#58885;" d="M102.451775 682.972524c26.547296 0 48.141423 21.584539 48.141423 48.150052 0 26.536749-21.595086 48.15197-48.141423 48.15197-26.645094 0-48.160599-21.615221-48.160599-48.15197C54.291176 704.557064 75.806682 682.972524 102.451775 682.972524zM514.833258 682.972524c26.544419 0 48.141423 21.584539 48.141423 48.150052 0 26.536749-21.597004 48.15197-48.141423 48.15197-26.645094 0-48.180734-21.615221-48.180734-48.15197C466.652524 704.557064 488.188165 682.972524 514.833258 682.972524zM925.297139 682.972524c26.545378 0 48.141423 21.584539 48.141423 48.150052 0 26.536749-21.597004 48.15197-48.141423 48.15197-26.645094 0-48.180734-21.615221-48.180734-48.15197C877.116404 704.557064 898.652045 682.972524 925.297139 682.972524zM103.410577 92.1437c-26.645094 0-48.160599-21.604674-48.160599-48.150052 0-26.567431 21.515506-48.15197 48.160599-48.15197 26.547296 0 48.141423 21.584539 48.141423 48.15197C151.552 70.539026 129.956914 92.1437 103.410577 92.1437zM515.79206 92.1437c-26.645094 0-48.180734-21.604674-48.180734-48.150052 0-26.567431 21.53564-48.15197 48.180734-48.15197 26.544419 0 48.141423 21.584539 48.141423 48.15197C563.933483 70.539026 542.336479 92.1437 515.79206 92.1437zM926.25594 92.1437c-26.645094 0-48.180734-21.604674-48.180734-48.150052 0-26.567431 21.53564-48.15197 48.180734-48.15197 26.545378 0 48.141423 21.584539 48.141423 48.15197C974.397363 70.539026 952.80036 92.1437 926.25594 92.1437zM975.148105 388.500614c0 64.841828-21.371685 119.718831-61.804345 158.697948-40.342532 38.891865-97.101663 59.449528-164.142022 59.449528-121.692045 0-196.842906-86.807011-234.582292-147.685154-37.705828 60.881978-112.882577 147.838562-234.68009 147.838562-67.039401 0-123.799491-20.556704-164.142022-59.449528-40.432659-38.978157-61.803386-93.855161-61.803386-158.694112-0.02397-65.623251 21.596045-121.162787 62.523446-160.612674 40.836315-39.362637 98.303041-60.168629 166.188105-60.168629 42.170007 0 82.05615 10.819116 118.548135 32.157243 29.203176 17.077213 56.290277 40.896719 80.509603 70.801738 13.074217 16.143341 23.942232 32.355715 32.763206 47.166322 8.836315-14.851835 19.735011-31.121738 32.855251-47.320689 24.218367-29.903101 51.306427-53.724524 80.509603-70.800779 36.492944-21.338127 76.377169-32.157243 118.548135-32.157243 67.884105 0 125.350831 20.805993 166.188105 60.168629C953.550142 267.341663 975.171116 322.88024 975.148105 388.500614zM422.545738 298.719401c-41.053963-45.283236-88.103311-68.243655-139.841199-68.243655-51.422442 0-93.762157 14.469273-122.440869 41.843056-28.570367 27.270232-43.672449 67.498667-43.672449 116.33618 0 48.034996 14.847041 87.597064 42.93609 114.40803 28.196434 26.913558 69.833348 41.139296 120.411086 41.139296 52.115655 0 99.692345-22.292135 141.40788-66.25606 31.394996-33.087281 50.990981-69.91197 59.406382-87.699655l-0.001918-0.003835 0.246412-0.69609C472.977738 371.50394 453.812255 333.206532 422.545738 298.719401zM868.876464 272.164434c-28.678712-27.373783-71.017468-41.843056-122.43991-41.843056-51.737888 0-98.787236 22.960419-139.842157 68.243655-31.32021 34.546577-50.498157 72.918772-58.494562 90.921228 8.255281 17.55182 27.945228 54.846322 59.693064 88.305618 41.716494 43.963925 89.293184 66.25606 141.40788 66.25606 50.577738 0 92.21561-14.225738 120.412045-41.139296 28.089049-26.810966 42.935131-66.373034 42.935131-114.40803C912.548914 339.66406 897.44779 299.435625 868.876464 272.164434z"  horiz-adv-x="1024" />

    
    <glyph glyph-name="xiayu" unicode="&#58886;" d="M339.528869 113.778097l-0.019176-0.038352c0 0-58.043925-61.043056-63.23967-110.276554-0.03164-0.29627-0.053693-0.595416-0.081498-0.893603-0.066157-0.71239-0.121768-1.422861-0.164914-2.129498-0.018217-0.309693-0.037393-0.619386-0.051775-0.930037-0.046022-0.996195-0.077663-1.989513-0.076704-2.973243 0-36.080659 29.710382-65.329858 66.35961-65.329858 36.649228 0 66.35961 29.249199 66.35961 65.329858 0 2.560959-0.165873 5.082607-0.457348 7.565903C407.151221 20.730247 398.266007 63.061333 339.528869 113.778097zM613.052884 115.6957l-0.019176-0.036434c0 0-58.286502-57.556854-63.503341-103.978187-0.03164-0.27997-0.054652-0.561858-0.082457-0.842787-0.066157-0.67212-0.121768-1.341363-0.164914-2.00773-0.018217-0.292434-0.037393-0.58391-0.051775-0.877303-0.046981-0.939625-0.078622-1.875416-0.076704-2.803536 0-34.020195 29.834067-61.599161 66.636704-61.599161s66.636704 27.578966 66.636704 61.599161c0 2.414262-0.166831 4.79209-0.459266 7.134442C680.958082 27.962487 672.035476 67.875476 613.052884 115.6957zM758.751401 688.901753c-49.386906 92.019056-146.504869 154.60003-258.250307 154.60003-120.532854 0-224.045064-72.811386-268.995596-176.842307C131.309783 645.44791 56.116734 556.507566 56.116734 449.993348c0-122.321978 99.161169-221.483146 221.483146-221.483146 2.815041 0 5.616659 0.059446 8.406772 0.163955l58.042966 0 0-22.691955 0.012464 0c-0.000959-0.16012-0.012464-0.318322-0.012464-0.479401 0-33.0077 26.758232-59.764974 59.764974-59.764974 33.0077 0 59.764974 26.758232 59.764974 59.764974 0 0.161079-0.010547 0.319281-0.012464 0.479401l0.012464 0L463.579566 228.674157l136.395266 0c-0.258876-2.25606-0.405573-4.545678-0.405573-6.87173 0-33.0077 26.758232-59.764974 59.764974-59.764974 33.0077 0 59.764974 26.758232 59.764974 59.764974 0 2.325094-0.146697 4.61567-0.405573 6.87173l35.886981 0 0 0.301064c124.641318 2.807371 224.819775 104.718382 224.819775 230.033738C979.403266 582.924464 881.449228 683.94379 758.751401 688.901753zM754.583491 296.174742c0 0-16.810667-0.390232-21.037064 0.094921L277.206772 296.269663c-0.089169 0-0.177378-0.003835-0.266547-0.003835-0.098757 0-0.196554 0.003835-0.29627 0.003835l-1.308764 0 0 0.0163c-83.631461 0.861963-151.163685 68.912899-151.163685 152.748584 0 84.371655 68.397064 152.768719 152.768719 152.768719 0.931955 0 1.859116-0.018217 2.786277-0.035476 5.589813 24.286442 15.081948 47.078112 27.772644 67.691386-0.038352 0.004794-0.076704 0.011506-0.115056 0.017258 13.172015 21.349633 29.785169 40.350202 49.064749 56.229873 0.116015 0.09588 0.233948 0.188884 0.349963 0.284764 1.022082 0.838951 2.052794 1.667356 3.089258 2.48809 0.529258 0.419955 1.058517 0.838951 1.590652 1.254112 0.465978 0.362427 0.936749 0.719101 1.404644 1.077693 38.234127 29.328779 86.06394 46.773213 137.975371 46.773213 101.522697 0 187.464869-66.674097 216.449438-158.620285 11.29564 2.46412 23.022742 3.773843 35.056659 3.773843 11.265918 0 22.265288-1.139056 32.890727-3.304989-0.001918 0.00767-0.003835 0.015341-0.004794 0.022052 3.933963-0.806352 7.813273-1.763236 11.638891-2.845723 0.245453-0.069034 0.489948-0.139985 0.734442-0.209978 0.895521-0.257918 1.787206-0.523506 2.676974-0.795805 0.465978-0.141903 0.930996-0.285723 1.395056-0.432419 0.609798-0.192719 1.21576-0.39215 1.822682-0.591581 0.680749-0.223401 1.360539-0.44776 2.037453-0.67979 0.228195-0.078622 0.454472-0.161079 0.681708-0.2397 63.982742-22.27967 109.902622-83.121378 109.902622-154.696869C916.141543 369.253633 844.010906 297.362697 754.583491 296.174742z"  horiz-adv-x="1024" />

    
    <glyph glyph-name="xue" unicode="&#58887;" d="M754.897978 688.917094c-49.386906 92.019056-146.504869 154.60003-258.250307 154.60003-120.532854 0-224.045064-72.811386-268.995596-176.842307C127.45636 645.463251 52.263311 556.522906 52.263311 450.008689c0-122.321978 99.161169-221.483146 221.483146-221.483146 2.815041 0 5.616659 0.059446 8.406772 0.163955L538.319101 228.689498l-10.396285-6.002097 0.002876-0.004794c-14.204644-8.32815-19.047551-26.571266-10.800899-40.853573s26.465798-19.210547 40.780704-11.073199l0.002876-0.004794 12.115416 6.995416 0-12.185408 0.004794 0c0.110262-16.465498 13.488419-29.781333 29.979805-29.781333 16.492345 0 29.869543 13.314876 29.979805 29.781333l0.004794 0 0 11.187296 10.254382-5.920599 0.002876 0.004794c14.314906-8.137348 32.535011-3.209109 40.780704 11.073199 8.245693 14.282307 3.403745 32.525423-10.800899 40.853573l0.002876 0.004794-10.26397 5.925393 90.76015 0 0 0.301064c124.641318 2.807371 224.819775 104.718382 224.819775 230.033738C975.549843 582.939805 877.595805 683.959131 754.897978 688.917094zM750.730067 296.189124c0 0-16.810667-0.390232-21.037064 0.094921L273.353348 296.284045c-0.089169 0-0.177378-0.003835-0.266547-0.003835-0.098757 0-0.196554 0.003835-0.29627 0.003835l-1.308764 0 0 0.0163c-83.631461 0.861963-151.163685 68.912899-151.163685 152.748584 0 84.371655 68.397064 152.768719 152.768719 152.768719 0.931955 0 1.859116-0.018217 2.786277-0.035476 5.589813 24.286442 15.081948 47.078112 27.772644 67.691386-0.038352 0.004794-0.076704 0.011506-0.115056 0.017258 13.172015 21.349633 29.785169 40.350202 49.064749 56.229873 0.116015 0.09588 0.233948 0.188884 0.349963 0.284764 1.022082 0.838951 2.052794 1.667356 3.089258 2.48809 0.529258 0.419955 1.058517 0.838951 1.590652 1.254112 0.465978 0.362427 0.936749 0.719101 1.404644 1.077693 38.234127 29.328779 86.06394 46.773213 137.975371 46.773213 101.522697 0 187.464869-66.674097 216.449438-158.620285 11.29564 2.46412 23.022742 3.773843 35.056659 3.773843 11.265918 0 22.265288-1.139056 32.890727-3.304989-0.001918 0.00767-0.003835 0.015341-0.004794 0.022052 3.933963-0.806352 7.813273-1.763236 11.638891-2.845723 0.245453-0.069034 0.489948-0.139985 0.734442-0.209978 0.895521-0.257918 1.787206-0.523506 2.676974-0.795805 0.465978-0.141903 0.930996-0.285723 1.395056-0.432419 0.609798-0.192719 1.21576-0.39215 1.822682-0.591581 0.680749-0.223401 1.360539-0.44776 2.037453-0.67979 0.228195-0.078622 0.454472-0.161079 0.681708-0.2397 63.982742-22.27967 109.902622-83.121378 109.902622-154.696869C912.28812 369.268015 840.157483 297.377079 750.730067 296.189124zM395.789423 167.785468c-6.643536 11.507536-21.323745 15.477933-32.858127 8.921648l-0.001918 0.003835-8.282127-4.781543 0 11.017588-0.003835 0c-0.089169 13.266936-10.867056 23.994966-24.155086 23.994966-13.28803 0-24.065918-10.72803-24.155086-23.994966l-0.003835 0 0-11.822022-9.782652 5.647341-0.001918-0.003835c-11.533423 6.556285-26.213633 2.585888-32.858127-8.921648-6.643536-11.507536-2.742172-26.205963 8.703041-32.916614l-0.001918-0.003835 9.085603-5.245603-9.065468-5.234097 0.001918-0.003835c-11.445213-6.710652-15.346577-21.409079-8.703041-32.916614 6.643536-11.507536 21.323745-15.477933 32.858127-8.921648l0.001918-0.003835 9.761558 5.635835 0-9.817169 0.003835 0c0.089169-13.266936 10.867056-23.994966 24.155086-23.994966 13.28803 0 24.065918 10.72803 24.155086 23.994966l0.003835 0 0 9.013693 8.261993-4.770037 0.001918 0.003835c11.533423-6.556285 26.213633-2.585888 32.858127 8.921648 6.643536 11.507536 2.742172 26.205963-8.703041 32.916614l0.001918 0.003835-8.958082 5.171775 8.979176 5.18424-0.001918 0.003835C398.531596 141.579506 402.432959 156.277933 395.789423 167.785468zM551.342502 25.238532c-5.525573 9.570757-17.73591 12.872869-27.328719 7.420165l-0.001918 0.002876-6.888989-3.977109 0 9.164225-0.003835 0c-0.073828 11.033888-9.038622 19.957453-20.090727 19.957453-11.052105 0-20.01594-8.922607-20.090727-19.957453l-0.003835 0 0-9.832509-8.13639 4.697169-0.001918-0.002876c-9.592809 5.452704-21.803146 2.150592-27.328719-7.420165-5.525573-9.570757-2.280989-21.796434 7.237993-27.377618l-0.001918-0.002876 7.557273-4.362547-7.540015-4.352959 0.001918-0.002876c-9.518981-5.581184-12.763566-17.805903-7.237993-27.377618 5.525573-9.570757 17.73591-12.872869 27.328719-7.420165l0.001918-0.002876 8.119131 4.687581 0-8.165154 0.003835 0c0.073828-11.033888 9.038622-19.957453 20.090727-19.957453 11.052105 0 20.016899 8.922607 20.090727 19.957453l0.003835 0 0 7.496869 6.87173-3.967521 0.001918 0.002876c9.592809-5.452704 21.803146-2.150592 27.328719 7.420165 5.525573 9.570757 2.280989 21.796434-7.237993 27.377618l0.001918 0.002876-7.450846 4.302142 7.468105 4.31173-0.001918 0.002876C553.623491 3.442097 556.868075 15.666816 551.342502 25.238532zM754.52788 78.019596c-5.525573 9.570757-17.73591 12.872869-27.328719 7.420165l-0.001918 0.002876-6.888989-3.977109 0 9.164225-0.003835 0c-0.073828 11.033888-9.038622 19.957453-20.090727 19.957453s-20.016899-8.922607-20.090727-19.957453l-0.003835 0 0-9.832509-8.13639 4.697169-0.001918-0.002876c-9.592809 5.452704-21.803146 2.150592-27.328719-7.420165-5.525573-9.570757-2.280989-21.796434 7.237993-27.377618l-0.001918-0.002876 7.557273-4.362547-7.540015-4.352959 0.001918-0.002876c-9.518981-5.581184-12.763566-17.805903-7.237993-27.377618 5.525573-9.570757 17.73591-12.873828 27.328719-7.420165l0.001918-0.002876 8.119131 4.687581 0-8.165154 0.003835 0c0.073828-11.033888 9.038622-19.957453 20.090727-19.957453 11.052105 0 20.016899 8.922607 20.090727 19.957453l0.003835 0 0 7.496869 6.87173-3.967521 0.001918 0.002876c9.592809-5.452704 21.803146-2.150592 27.328719 7.420165 5.525573 9.570757 2.280989 21.796434-7.237993 27.377618l0.001918 0.002876-7.450846 4.302142 7.468105 4.31173-0.001918 0.002876C756.808869 56.223161 760.053453 68.448839 754.52788 78.019596z"  horiz-adv-x="1024" />

    
    <glyph glyph-name="yin" unicode="&#58888;" d="M791.397633 595.850067c-46.037813 85.779176-136.569768 144.115536-240.73588 144.115536-112.359071 0-208.850936-67.873558-250.753438-164.849618-4.043266-9.310921-5.947446-17.818367-7.054861-23.296-40.679071-28.812944-73.134502-68.470891-93.139895-114.770457C106.31191 417.276165 36.218727 334.368599 36.218727 235.077993c0-114.026427 92.436135-206.462562 206.462562-206.462562 2.62424 0 5.236015 0.05561 7.837243 0.152449L687.316854 28.76788l0 0.280929c100.283925 2.258936 183.569258 73.344479 204.494142 167.874637 63.021064 37.356824 105.274487 106.052075 105.274487 184.624899C997.084524 497.059955 905.774022 591.228644 791.397633 595.850067zM687.316854 97.442996c0 0-15.670652-0.363386-19.610367 0.089169L242.315026 97.532165c-0.083416 0-0.164914-0.003835-0.24833-0.003835-0.092045 0-0.18409 0.002876-0.276135 0.003835l-1.220554 0 0 0.015341c-77.959191 0.803476-135.159371 58.486891-135.159371 136.636884 0 78.650487 58.005573 136.65606 136.65606 136.65606 0.868674 0 1.732554-0.017258 2.597393-0.032599 5.210127 22.639221 19.811715 49.638112 31.642367 68.853453-0.035476 0.004794-0.07191 0.010547-0.107386 0.015341 12.278412 19.901843 22.012165 31.860974 39.98394 46.66391 0.108345 0.089169 0.218607 0.176419 0.326951 0.265588 0.953049 0.781423 1.913768 1.554217 2.88024 2.319341 0.492824 0.391191 0.986607 0.781423 1.483266 1.168779 0.434337 0.337498 0.872509 0.670202 1.309723 1.003865 35.641528 27.340225 80.227715 43.600539 128.618427 43.600539 94.637543 0 174.751161-62.15239 201.770187-147.862532 10.529558 2.29633 21.460854 3.517843 32.67979 3.517843 10.501753 0 20.755176-1.061393 30.659596-3.080629-0.001918 0.006712-0.002876 0.014382-0.004794 0.021094 3.667416-0.7517 7.283056-1.643386 10.849798-2.653004 0.228195-0.06424 0.45639-0.130397 0.684584-0.195596 0.834157-0.240659 1.666397-0.48803 2.494801-0.742112 0.434337-0.132315 0.867715-0.266547 1.300135-0.402697 0.56761-0.180255 1.133303-0.365303 1.698996-0.551311 0.634727-0.20806 1.268494-0.417079 1.899386-0.633768 0.212854-0.072869 0.42379-0.149573 0.635685-0.223401 59.643206-20.768599 96.697049-71.730816 96.697049-138.451895C832.165873 159.813034 770.678891 98.550412 687.316854 97.442996zM893.749693 280.232749c-16.945858 98.13621-100.578277 173.430891-202.547775 177.55182-46.037813 85.779176-136.569768 144.115536-240.73588 144.115536-21.61618 0-42.640779-2.521648-62.807251-7.269633 8.021333 10.887191 16.450157 19.670772 28.718981 29.776539 0.108345 0.089169 0.218607 0.176419 0.326951 0.265588 0.953049 0.781423 1.913768 1.554217 2.88024 2.319341 0.492824 0.391191 0.986607 0.781423 1.483266 1.168779 0.434337 0.337498 0.872509 0.670202 1.309723 1.003865 35.641528 27.340225 80.227715 43.600539 128.618427 43.600539 94.637543 0 174.751161-62.15239 201.770187-147.862532 10.529558 2.29633 21.460854 3.517843 32.67979 3.517843 10.501753 0 20.755176-1.061393 30.659596-3.080629-0.001918 0.006712-0.002876 0.014382-0.004794 0.021094 3.667416-0.7517 7.283056-1.643386 10.849798-2.653004 0.228195-0.06424 0.45639-0.130397 0.684584-0.195596 0.834157-0.240659 1.666397-0.48803 2.494801-0.742112 0.434337-0.132315 0.867715-0.266547 1.300135-0.402697 0.56761-0.180255 1.133303-0.365303 1.698996-0.551311 0.634727-0.20806 1.268494-0.417079 1.899386-0.633768 0.212854-0.072869 0.42379-0.149573 0.635685-0.223401 59.643206-20.768599 96.697049-71.730816 96.697049-138.451895C932.360629 341.100345 917.991071 305.931506 893.749693 280.232749z"  horiz-adv-x="1024" />

    
    <glyph glyph-name="List" unicode="&#58982;" d="M340.889 588.819h548.695c41.152 0 68.588 27.436 68.588 68.587 0 41.153-27.436 68.587-68.588 68.587H340.889c-41.153 0-68.588-27.435-68.588-68.587-0.001-41.152 27.434-68.587 68.588-68.587z m548.695-137.174H340.889c-41.153 0-68.588-27.435-68.588-68.588 0-41.151 27.435-68.589 68.588-68.589h548.695c41.152 0 68.588 27.438 68.588 68.589 0 41.152-27.436 68.588-68.588 68.588z m0-274.349H340.889c-41.153 0-68.588-27.435-68.588-68.59 0-41.151 27.435-68.584 68.588-68.584h548.695c41.152 0 68.588 27.433 68.588 68.584 0 41.155-27.436 68.59-68.588 68.59zM130.587 725.992C89.435 725.992 62 698.558 62 657.405s27.435-68.588 68.587-68.588 68.588 27.436 68.588 68.588-27.435 68.587-68.588 68.587z m0-274.347C89.435 451.645 62 424.209 62 383.057c0-41.151 27.435-68.589 68.587-68.589s68.588 27.438 68.588 68.589c0.001 41.152-27.435 68.588-68.588 68.588z m0-274.349c-41.152 0-68.587-27.435-68.587-68.59 0-41.151 27.435-68.584 68.587-68.584s68.588 27.433 68.588 68.584c0.001 41.155-27.435 68.59-68.588 68.59z"  horiz-adv-x="1024" />

    
    <glyph glyph-name="picture" unicode="&#58985;" d="M1184-128H96c-52.928 0-96 43.072-96 96V800c0 52.928 43.072 96 96 96h1088c52.928 0 96-43.072 96-96v-832c0-52.928-43.072-96-96-96zM128 768v-768l297.376 297.376a32.096 32.096 0 0 0 45.248 0L576 192 1152 768H128z m224-320a96 96 0 1 0 0 192 96 96 0 0 0 0-192z"  horiz-adv-x="1280" />

    
    <glyph glyph-name="facebookhover" unicode="&#58970;" d="M512.02 896C229.222 896 0 666.778 0 384s229.222-512 512.02-512C794.808-128 1024 101.222 1024 384S794.778 896 512.02 896z m138.875-546.191h-92.702v-277.791H422.39V351.16l-71.721 0.492V468.92h71.23V587.97c0 55.624 62.76 108.002 105.287 108.002h123.218v-117.996h-65.976c-19.016 0-25.293-15.657-25.293-27.381v-84.962H673.33L650.895 349.81z"  horiz-adv-x="1024" />

    
    <glyph glyph-name="hoveraax" unicode="&#58971;" d="M170.666382 682.667022h682.665529v-639.998933H170.666382zM512.895145-127.998293c-207.402321-0.511999-394.367343 124.415793-473.72721 315.903473S3.285328 599.595161 149.75975 746.026917 516.948472 936.490599 708.009487 856.618732A512.21248 512.21248 0 0 0 1023.998293 383.019522C1023.998293 100.865325 795.604007-127.486294 512.895145-127.998293z m112.639812 738.857435l-15.871973-2.047997c-9.727984-2.047997-19.455968-5.119991-28.671952-8.703985a127.317121 127.317121 0 0 1-72.703879-86.527856c-5.119991-19.967967-5.119991-40.959932 0-60.415899-19.455968 0-38.911935 2.559996-57.343905 7.679987a376.746039 376.746039 0 0 0-156.714405 76.287873 236.159606 236.159606 0 0 0-37.930603 37.375937 104.490493 104.490493 0 0 0-11.775981 13.823977 143.231761 143.231761 0 0 1-13.823977-33.279944 133.375778 133.375778 0 0 1 28.671952-117.247805c6.655989-8.191986 16.895972-13.311978 23.551961-20.479966a33.83461 33.83461 0 0 0-17.407971 1.535998 126.037123 126.037123 0 0 0-27.135955 7.679987l-13.823977 5.119992a123.562461 123.562461 0 0 1 60.4159-110.591816c12.28798-9.215985 26.623956-14.847975 41.98393-16.895972-8.191986-7.167988-44.543926-4.095993-57.343905-2.559996 12.799979-38.911935 43.007928-69.119885 81.450531-82.431862 12.28798-4.607992 25.087958-6.655989 37.887937-6.655989a168.533052 168.533052 0 0 0-34.815942-22.527963 277.162205 277.162205 0 0 0-76.799872-28.159953c-11.77598-2.559996-24.06396-2.047997-37.375938-4.095993a183.039695 183.039695 0 0 0-40.959931 1.535998l11.263981-6.655989c11.77598-7.167988 23.551961-13.311978 36.351939-18.43197 24.575959-10.239983 49.663917-18.431969 75.263875-24.575959 60.415899-12.799979 123.434461-10.751982 182.826362 6.14399 134.186443 41.98393 219.178301 140.287766 251.476914 285.183525 5.119991 27.135955 7.167988 55.295908 6.14399 82.943862l20.479966 16.895971a214.826309 214.826309 0 0 1 43.519927 50.175917 255.572907 255.572907 0 0 0-72.703879-19.967967c5.119991 2.559996 9.727984 6.14399 14.335976 10.239983 19.455968 15.871974 33.791944 36.863939 41.471931 60.415899l-15.871973-8.703985a207.956987 207.956987 0 0 0-66.559889-22.015964 129.279785 129.279785 0 0 1-100.906499 40.447933v-0.511999h-0.554666z"  horiz-adv-x="1024" />

    
    <glyph glyph-name="pinterest" unicode="&#59096;" d="M512.7 832C265.6 832 65.3 631.8 65.3 384.7c0-189.5 117.8-351.4 284.3-416.5-3.9 35.4-7.4 89.7 1.5 128.3 8.2 35 52.5 222.3 52.5 222.3s-13.4 26.9-13.4 66.5c0 62.1 36.1 108.6 80.9 108.6 38.2 0 56.6-28.7 56.6-63 0-38.4-24.4-95.8-37-149-10.6-44.5 22.4-80.8 66.2-80.8 79.4 0 140.6 83.8 140.6 204.8 0 106.8-77 181.7-186.9 181.7-127.2 0-201.8-95.6-201.8-194 0-38.5 14.7-80 33.2-102.3 3.7-4.5 4.2-8.4 3.2-12.9-3.4-14-10.9-44.7-12.5-50.9-2-8.4-6.4-10.1-15-6.2C262 247.2 227 328.8 227 394.8c0 140.9 102.5 270.6 295.5 270.6 155.2 0 275.8-110.7 275.8-258.3 0-154.3-97.3-278.5-232.6-278.5-45.3 0-87.8 23.5-102.9 51.5l-27.9-106.3c-10-39-37.5-87.8-55.9-117.4 41.9-12.9 86.1-20 132.5-20 246.5 0 447.2 200.2 447.2 447.3S758 831 511.5 831l1.2 1z"  horiz-adv-x="1024" />

    
    <glyph glyph-name="google-plus" unicode="&#58972;" d="M511.995437 384.004563m-511.995437 0a511.995437 511.995437 0 1 1 1023.990873 0 511.995437 511.995437 0 1 1-1023.990873 0ZM178.255604 361.087159c-1.816234-88.09191 58.858757-172.158899 142.323378-199.575817 78.618287-26.41297 175.280266-6.65344 227.595105 60.674991 38.195674 47.176449 46.875264 110.069253 42.740822 168.827616-67.328431 0.602369-134.656862 0.401579-201.884899 0.301184-0.109522-23.98524 0-47.879212 0.100395-71.864453 40.313092-1.11347 80.635311-0.602369 120.948403-1.414654-10.176386-34.873517-33.358468-67.328431-68.542296-79.92342-67.9308-29.935916-154.608055 9.172438-175.98303 80.434521-25.801474 68.241112 16.437374 150.592262 86.175281 170.44306 43.242796 15.214382 87.790725-1.916629 124.790787-24.395947 18.746455 17.541717 36.288172 36.288172 53.519578 55.235417-42.038058 35.174702-96.059609 56.741339-151.596211 52.004528-108.96491-1.296006-204.321755-101.891637-200.187313-210.747026zM721.94843 451.807588c-0.20079-20.060715-0.410706-40.221824-0.511101-60.273412-20.161109-0.20079-40.212697-0.301185-60.273412-0.401579v-60.072622c20.060715-0.100395 40.221824-0.20079 60.273412-0.410706 0.20079-20.060715 0.20079-40.112302 0.401579-60.273412 19.96032 0 40.021034 0.100395 60.072623 0 0.109522 20.161109 0.20079 40.212697 0.410706 60.373807l60.273412 0.301184v60.072622c-20.051588 0.100395-40.212697 0.20079-60.273412 0.40158-0.109522 20.060715-0.301185 40.221824-0.410706 60.273412l-59.963101 0.009126zM178.255604 361.087159c-4.134442 108.855388 91.213277 209.451019 200.178187 210.756152 55.536601 4.736811 109.567279-16.829826 151.59621-52.004527-17.240532-18.956371-34.782249-37.693699-53.519577-55.235417-37.000062 22.479318-81.547991 39.610328-124.790788 24.395947-69.747034-19.859925-111.985882-102.211075-86.175281-170.44306 21.374974-71.262084 108.05223-110.370438 175.98303-80.434522 35.174702 12.594989 58.36591 45.049903 68.542296 79.923421-40.313092 0.803159-80.635311 0.301185-120.948403 1.414654-0.100395 23.98524-0.20079 47.879212-0.100395 71.864453 67.228036 0.100395 134.556468 0.301185 201.884899-0.301185 4.134442-58.767489-4.536021-121.660294-42.740822-168.827615-52.314839-67.328431-148.967691-87.087961-227.595105-60.674992-83.446367 27.407792-144.130485 111.474781-142.314251 199.566691zM721.94843 451.807588h59.963101c0.109522-20.060715 0.301185-40.221824 0.410706-60.273412 20.051588-0.20079 40.212697-0.301185 60.273412-0.401579v-60.072622l-60.273412-0.301185c-0.20079-20.161109-0.301185-40.212697-0.410706-60.373806-20.051588 0.100395-40.121429 0-60.072623 0-0.191663 20.161109-0.191663 40.212697-0.401579 60.273412-20.051588 0.209916-40.212697 0.301185-60.273412 0.410706v60.072622c20.060715 0.100395 40.121429 0.20079 60.273412 0.401579 0.100395 20.042461 0.301185 40.203571 0.511101 60.264285z"  horiz-adv-x="1024" />

    
    <glyph glyph-name="play-circle" unicode="&#59265;" d="M512 832C264.6 832 64 631.4 64 384s200.6-448 448-448 448 200.6 448 448S759.4 832 512 832z m0-820c-205.4 0-372 166.6-372 372s166.6 372 372 372 372-166.6 372-372-166.6-372-372-372zM719.4 396.9l-296.1 215c-10.6 7.7-25.3 0.2-25.3-12.9v-430c0-13.1 14.8-20.5 25.3-12.9l296.1 215c8.8 6.4 8.8 19.4 0 25.8z m-257.6-134V505.1L628.5 384 461.8 262.9z"  horiz-adv-x="1024" />

    
    <glyph glyph-name="play-circle-fill" unicode="&#59463;" d="M512 832C264.6 832 64 631.4 64 384s200.6-448 448-448 448 200.6 448 448S759.4 832 512 832z m144.1-454.9L437.7 218.2c-1.4-1-3-1.5-4.7-1.5-4.4 0-8 3.6-8 8V542.3c0 1.7 0.5 3.3 1.5 4.7 2.6 3.6 7.6 4.4 11.2 1.8L656.1 390c0.7-0.5 1.3-1.1 1.8-1.8 2.6-3.5 1.8-8.5-1.8-11.1z"  horiz-adv-x="1024" />

    
    <glyph glyph-name="android-fill" unicode="&#59521;" d="M270.1 154.3c0-23.4 19.1-42.5 42.6-42.5h48.7v-120.4c0-30.5 24.5-55.4 54.6-55.4 30.2 0 54.6 24.8 54.6 55.4V111.9h85v-120.4c0-30.5 24.5-55.4 54.6-55.4 30.2 0 54.6 24.8 54.6 55.4V111.9h48.7c23.5 0 42.6 19.1 42.6 42.5V549.6h-486v-395.3zM627.2 754.4l44.9 65c2.6 3.8 2 8.9-1.5 11.4-3.5 2.4-8.5 1.2-11.1-2.6l-46.6-67.6c-30.7 12.1-64.9 18.8-100.8 18.8-35.9 0-70.1-6.7-100.8-18.8l-46.6 67.5c-2.6 3.8-7.6 5.1-11.1 2.6-3.5-2.4-4.1-7.4-1.5-11.4l44.9-65c-71.4-33.2-121.4-96.1-127.8-169.6h486c-6.6 73.6-56.7 136.5-128 169.7zM409.5 651.9c-14.8 0-26.9 12-26.9 26.9 0 14.8 12 26.9 26.9 26.9 14.8 0 26.9-12 26.9-26.9-0.1-14.9-12.1-26.9-26.9-26.9z m208.4 0c-14.8 0-26.9 12-26.9 26.9 0 14.8 12 26.9 26.9 26.9 14.8 0 26.9-12 26.9-26.9-0.1-14.9-12.1-26.9-26.9-26.9zM841.3 551.2c-30.2 0-54.6-24.8-54.6-55.4v-216.4c0-30.5 24.5-55.4 54.6-55.4 30.2 0 54.6 24.8 54.6 55.4V495.9c0.1 30.6-24.3 55.3-54.6 55.3zM182.7 551.2c-30.2 0-54.6-24.8-54.6-55.4v-216.4c0-30.5 24.5-55.4 54.6-55.4 30.2 0 54.6 24.8 54.6 55.4V495.9c0 30.6-24.5 55.3-54.6 55.3z"  horiz-adv-x="1024" />

    
    <glyph glyph-name="apple-fill" unicode="&#59522;" d="M747.4 360.3c-0.4 68.2 30.5 119.6 92.9 157.5-34.9 50-87.7 77.5-157.3 82.8-65.9 5.2-138-38.4-164.4-38.4-27.9 0-91.7 36.6-141.9 36.6C273.1 597.2 163 516.2 163 351.4c0-48.7 8.9-99 26.7-150.8 23.8-68.2 109.6-235.3 199.1-232.6 46.8 1.1 79.9 33.2 140.8 33.2 59.1 0 89.7-33.2 141.9-33.2 90.3 1.3 167.9 153.2 190.5 221.6-121.1 57.1-114.6 167.2-114.6 170.7zM642.3 665.3c50.7 60.2 46.1 115 44.6 134.7-44.8-2.6-96.6-30.5-126.1-64.8-32.5-36.8-51.6-82.3-47.5-133.6 48.4-3.7 92.6 21.2 129 63.7z"  horiz-adv-x="1024" />

    
    <glyph glyph-name="wechat" unicode="&#59013;" d="M512 384m-512 0a512 512 0 1 1 1024 0 512 512 0 1 1-1024 0ZM637.946524 478.003565c-59.322638-2.737968-110.431373-20.991087-152.413547-61.14795-41.982175-41.069519-61.14795-91.265597-56.58467-153.326203-22.816399 2.737968-43.807487 6.388592-65.71123 8.213904-7.301248 0.912656-16.427807 0-21.903744-3.650624-20.991087-11.864528-40.156863-24.641711-63.885918-39.244207 4.56328 19.165775 7.301248 36.506239 11.864528 52.934046 3.650624 11.864528 1.825312 18.253119-9.12656 26.467023-71.187166 50.196078-101.304813 125.033868-78.488413 202.609626 20.991087 71.187166 71.187166 114.994652 140.549019 136.898396 94.003565 31.030303 200.784314-0.912656 257.368984-75.750446 22.816399-27.379679 35.593583-58.409982 38.331551-94.003565z m-271.971479 23.729055c0.912656 13.68984-11.864528 26.467023-26.467024 27.379679-14.602496 0-27.379679-10.951872-27.379679-25.554367 0-14.602496 10.951872-26.467023 25.554367-27.379679 15.515152 0 27.379679 11.864528 28.292336 25.554367z m142.374331 27.379679c-14.602496 0-26.467023-12.777184-26.467023-26.467023 0-14.602496 12.777184-26.467023 27.379679-26.467023s26.467023 11.864528 26.467023 26.467023c-0.912656 15.515152-12.777184 27.379679-27.379679 26.467023zM771.194296 109.290553c-19.165775 8.213904-35.593583 20.991087-53.846702 22.816399-18.253119 1.825312-37.418895-8.213904-56.584671-10.951872-58.409982-6.388592-110.431373 10.039216-153.326203 50.196079-81.226381 75.750446-70.27451 190.745098 24.641711 252.805704 83.964349 54.759358 207.172906 36.506239 265.582888-39.244207 52.02139-66.623886 45.632799-155.151515-17.340463-210.823529-18.253119-16.427807-24.641711-29.204991-12.777184-51.108735 1.825312-3.650624 1.825312-8.213904 3.650624-13.689839zM557.632799 315.550802c11.864528 0 21.903743 9.12656 21.903743 20.991087 0.912656 12.777184-9.12656 22.816399-21.903743 22.8164s-22.816399-10.951872-21.903744-22.8164c0-10.951872 10.039216-20.991087 21.903744-20.991087z m137.811051 43.807487c-11.864528 0-20.991087-9.12656-21.903743-20.991088-0.912656-12.777184 9.12656-22.816399 21.903743-22.816399 11.864528 0 20.991087 9.12656 21.903744 20.991087 0 12.777184-10.039216 22.816399-21.903744 22.8164z"  horiz-adv-x="1024" />

    
    <glyph glyph-name="youluPC_common_arrow_do" unicode="&#58891;" d="M441.73082 750.024954v-535.241837l-194.905229 194.905229a67.958588 67.958588 0 0 1-96.229361-96.22936l312.881338-312.881338a68.230422 68.230422 0 0 1 96.229361 0L869.869923 309.381471A67.958588 67.958588 0 1 1 772.553225 406.698168l-194.905229-194.905229V750.024954a67.958588 67.958588 0 0 1-135.917176 0z"  horiz-adv-x="1082" />

    
    <glyph glyph-name="youluPC_common_arrow_bo" unicode="&#58892;" d="M261.504646 159.872578a67.958588 67.958588 0 0 0-48.114681 115.801433l322.939209 322.939209a67.958588 67.958588 0 0 0 96.229361 0L951.420228 279.207858a67.958588 67.958588 0 0 0-96.22936-96.229361l-271.834351 271.834351-273.737191-275.096363a67.686753 67.686753 0 0 0-48.11468-19.843907z"  horiz-adv-x="1082" />

    
    <glyph glyph-name="youluPC_common_arrow_bo1" unicode="&#58893;" d="M580.910008 159.872578a67.686753 67.686753 0 0 0-48.11468 19.843907L213.389965 499.121848a67.958588 67.958588 0 0 0 96.229361 95.957526l271.834351-271.834351 274.28086 275.368197A67.958588 67.958588 0 0 0 951.420228 502.38386L629.024688 179.716485a67.686753 67.686753 0 0 0-48.11468-19.843907z"  horiz-adv-x="1082" />

    
    <glyph glyph-name="youluPC_common_arrow_bo2" unicode="&#58894;" d="M424.605256-1.053358a67.958588 67.958588 0 0 0-48.11468 116.073268l271.834351 271.834351L373.228564 662.222458a67.958588 67.958588 0 1 0 96.22936 95.957526l322.667375-322.667374a67.958588 67.958588 0 0 0 0-96.229361L472.719936 19.877887a68.774091 68.774091 0 0 0-48.11468-20.931245z"  horiz-adv-x="1082" />

    
    <glyph glyph-name="youluPC_common_arrow_bo3" unicode="&#58895;" d="M744.010619-1.053358a68.774091 68.774091 0 0 0-48.114681 19.843908L373.228564 342.817096a67.686753 67.686753 0 0 0 0 95.957526L692.633926 758.179984A67.958588 67.958588 0 0 0 788.319618 662.222458l-271.834351-271.834351 275.640032-274.28086a67.958588 67.958588 0 0 0 0-96.22936 68.774091 68.774091 0 0 0-48.11468-20.931245z"  horiz-adv-x="1082" />

    
    <glyph glyph-name="youluPC_common_arrow_le" unicode="&#58896;" d="M860.355721 393.378285H326.201221l195.177064 194.90523a67.958588 67.958588 0 0 1-96.22936 95.957526L110.908415 371.359703a67.958588 67.958588 0 0 1 0-95.957526L419.712238-33.67348a68.230422 68.230422 0 0 1 96.22936 0 68.502256 68.502256 0 0 1 0 96.22936l-194.90523 194.90523h539.319353a67.958588 67.958588 0 0 1 0 135.917175z"  horiz-adv-x="1082" />

    
    <glyph glyph-name="youluPC_common_arrow_no" unicode="&#58897;" d="M424.605256 26.130077a40.775153 40.775153 0 0 0-28.814441 69.589594l290.590921 291.678258L392.528803 681.522697a40.503318 40.503318 0 0 0 0 57.628883 41.046987 41.046987 0 0 0 57.628882 0l322.667375-322.939209a40.503318 40.503318 0 0 0 0-57.628883L453.419697 39.178126a40.503318 40.503318 0 0 0-28.814441-13.048049z"  horiz-adv-x="1082" />

    
    <glyph glyph-name="youluPC_common_arrow_no1" unicode="&#58898;" d="M744.010619 26.130077a41.046987 41.046987 0 0 0-28.814442 11.960711L392.528803 362.117335a40.503318 40.503318 0 0 0 0 57.628882L711.934165 739.15158a40.775153 40.775153 0 0 0 57.628883-57.628883L478.972126 390.931776 772.82506 96.807008a40.775153 40.775153 0 0 0-28.814441-70.676931z"  horiz-adv-x="1082" />

    
    <glyph glyph-name="youluPC_common_arrow_ri" unicode="&#58899;" d="M159.023095 316.177329h535.241837l-194.905229-194.905229A67.958588 67.958588 0 1 1 595.317229 26.130077l313.153172 311.794001a68.230422 68.230422 0 0 1 0 96.22936L599.394744 742.95726a67.686753 67.686753 0 0 1-48.11468 19.843908 66.599416 66.599416 0 0 1-47.842846-19.843908 67.686753 67.686753 0 0 1 0-95.957525l194.90523-194.90523H159.023095a67.958588 67.958588 0 1 1 0-135.917176z"  horiz-adv-x="1082" />

    
    <glyph glyph-name="youluPC_common_arrow_no2" unicode="&#58900;" d="M580.910008 187.056013a39.95965 39.95965 0 0 0-28.814441 11.960711L232.690204 518.422087a40.775153 40.775153 0 0 0 57.628883 57.628882l290.590921-290.590921 294.124768 293.852933a40.503318 40.503318 0 0 0 57.628882 0 41.046987 41.046987 0 0 0 0-57.628882L609.724449 199.016724a39.415981 39.415981 0 0 0-28.814441-11.960711z"  horiz-adv-x="1082" />

    
    <glyph glyph-name="youluPC_common_arrow_th" unicode="&#58901;" d="M744.010619 48.964162a18.212902 18.212902 0 0 0-13.319884 5.708522L407.751526 377.340058a19.300239 19.300239 0 0 0 0 27.183435L727.156889 723.657022a19.028405 19.028405 0 0 0 27.183435-27.183436L448.254845 390.931776 757.602336 80.496947a19.300239 19.300239 0 0 0-13.591717-32.620122z"  horiz-adv-x="1082" />

    
    <glyph glyph-name="youluPC_common_arrow_th1" unicode="&#58902;" d="M424.605256 48.964162a18.212902 18.212902 0 0 0-13.319883 5.708522 18.75657 18.75657 0 0 0 0 27.183435l305.813645 305.54181L407.751526 696.745421a19.300239 19.300239 0 0 0 0 27.183435 18.75657 18.75657 0 0 0 27.183436 0l322.667374-322.939209a19.300239 19.300239 0 0 0 0-27.183435L438.196974 53.313512a19.028405 19.028405 0 0 0-13.591718-4.34935z"  horiz-adv-x="1082" />

    
    <glyph glyph-name="youluPC_common_arrow_th2" unicode="&#58903;" d="M261.504646 208.802761a17.941067 17.941067 0 0 0-13.319884 5.436687 18.75657 18.75657 0 0 0 0 27.183435L570.852137 564.090257a19.300239 19.300239 0 0 0 27.183435 0L917.1691 243.597558a19.028405 19.028405 0 1 0-27.183435-27.183435L584.443855 523.586939 275.096363 214.239448a18.75657 18.75657 0 0 0-13.591717-5.436687z"  horiz-adv-x="1082" />

    
    <glyph glyph-name="youluPC_common_double_a" unicode="&#58904;" d="M558.891426 118.825591a40.775153 40.775153 0 0 0-22.018583 6.524024l-249.2721 159.838598A40.775153 40.775153 0 0 0 331.637908 352.331298l227.253518-145.431378 221.273161 142.713035a40.775153 40.775153 0 1 0 44.308999-68.502257l-244.650915-157.120255a39.95965 39.95965 0 0 0-20.931245-5.164852zM558.891426 278.664189a40.775153 40.775153 0 0 0-22.018583 6.524024l-249.2721 159.566764a40.775153 40.775153 0 0 0 44.037165 68.774091l227.253518-145.703212 221.273161 142.984869a40.775153 40.775153 0 1 0 44.308999-68.502257l-244.650915-157.120255a39.95965 39.95965 0 0 0-20.931245-6.524024z"  horiz-adv-x="1082" />

    
    <glyph glyph-name="youluPC_common_arrow_no3" unicode="&#58905;" d="M261.504646 187.056013a39.95965 39.95965 0 0 0-28.814442 11.960711 41.046987 41.046987 0 0 0 0 57.628883l322.939209 322.667374a40.503318 40.503318 0 0 0 57.628883 0L932.663658 259.907619a40.775153 40.775153 0 1 0-57.628882-57.628883L584.443855 492.869658 290.319087 199.016724a39.415981 39.415981 0 0 0-28.814441-11.960711z"  horiz-adv-x="1082" />

    
    <glyph glyph-name="youluPC_common_arrow_up" unicode="&#58906;" d="M577.647996 38.362623v535.513671L772.553225 379.514733A67.958588 67.958588 0 0 1 869.869923 474.92859L555.629413 787.26626a67.143085 67.143085 0 0 1-95.957526 0L150.59623 479.006106a68.230422 68.230422 0 0 1 0-96.229361 68.502256 68.502256 0 0 1 96.229361 0l194.905229 194.90523v-539.319352a67.958588 67.958588 0 1 1 135.917176 0z"  horiz-adv-x="1082" />

    
    <glyph glyph-name="youluPC_common_double_a1" unicode="&#58907;" d="M553.454739 38.090788a41.318821 41.318821 0 0 0-34.251129 18.756571l-157.120255 244.650915a40.503318 40.503318 0 0 0 0 44.037165l159.566764 249.2721a40.775153 40.775153 0 0 0 68.774091-44.037165l-145.703212-228.340854 142.984869-221.273162a41.046987 41.046987 0 0 0-34.251128-63.06557zM713.293337 38.090788a40.775153 40.775153 0 0 0-33.70746 18.756571l-157.120254 244.650915a41.046987 41.046987 0 0 0 0 44.037165l159.838598 249.2721a40.775153 40.775153 0 0 0 68.774091-44.037165l-146.518716-228.340854 142.984869-221.273162a41.046987 41.046987 0 0 0-34.251128-63.06557z"  horiz-adv-x="1082" />

    
    <glyph glyph-name="youluPC_common_arrow_th3" unicode="&#58908;" d="M580.910008 208.802761a17.941067 17.941067 0 0 0-13.319883 5.436687L248.184762 533.64481a19.028405 19.028405 0 0 0 27.183436 27.183435l305.54181-306.085479 309.347491 309.347491a19.300239 19.300239 0 0 0 27.183435 0 18.75657 18.75657 0 0 0 0-27.183435L594.501726 214.239448a18.75657 18.75657 0 0 0-13.591718-5.436687z"  horiz-adv-x="1082" />

    
    <glyph glyph-name="youluPC_common_notice" unicode="&#58909;" d="M519.038697 884.529532a500.529532 500.529532 0 1 1 500.790224-500.529532A500.529532 500.529532 0 0 1 519.038697 884.529532zM521.384929 74.03666a69.86558 69.86558 0 1 0 69.86558 69.604888A69.604888 69.604888 0 0 0 521.384929 74.03666z m69.86558 280.505092a69.86558 69.86558 0 0 0-139.731161 0v286.76171a69.86558 69.86558 0 0 0 139.731161 0z"  horiz-adv-x="1024" />

    
    <glyph glyph-name="youluPC_common_mail" unicode="&#58910;" d="M523.991853 314.655804a26.069246 26.069246 0 0 0-24.244399 0L8.863544 570.916497v-476.02444a99.063136 99.063136 0 0 1 100.887983-96.456212H915.03055a99.063136 99.063136 0 0 1 101.670061 96.456212V571.177189z m-11.991853 97.759675a53.96334 53.96334 0 0 1 32.586558 10.427698L1016.700611 674.411405a99.063136 99.063136 0 0 1-101.670061 95.15275H109.230143A98.541752 98.541752 0 0 1 8.863544 674.150713l470.549898-251.307536a54.484725 54.484725 0 0 1 32.586558-10.427698z m0 0"  horiz-adv-x="1024" />

    
    <glyph glyph-name="youluPC_common_double_a2" unicode="&#58911;" d="M802.455004 285.460048a40.503318 40.503318 0 0 0-22.018582 6.25219l-227.253518 145.703212-221.273161-142.984869a40.775153 40.775153 0 1 0-44.309 68.502257l244.650916 157.392089a41.590656 41.590656 0 0 0 44.037165 0l249.2721-159.838598a40.775153 40.775153 0 0 0-22.018583-75.026281zM802.455004 125.621449a40.775153 40.775153 0 0 0-22.018582 6.524025l-227.253518 145.431378L331.909743 134.863817a40.775153 40.775153 0 1 0-44.309 68.502257l244.650916 157.120255a40.503318 40.503318 0 0 0 44.037165 0l249.2721-159.838599a40.775153 40.775153 0 0 0-22.018583-75.026281z"  horiz-adv-x="1082" />

    
    <glyph glyph-name="youluPC_common_phone" unicode="&#58912;" d="M287.616 302.336L232.576 363.776C130.176 479.744 137.088 665.6 223.616 793.6a67.584 67.584 0 0 0 108.8 3.584l130.56-163.072a67.84 67.84 0 0 0-4.096-88.576l-43.264-45.312 224.512-253.44 51.2 37.632a67.584 67.584 0 0 0 88.32-6.4l153.6-153.6a67.328 67.328 0 0 0-17.408-108.032c-140.288-68.608-330.496-48.64-433.152 67.072l-49.152 55.552"  horiz-adv-x="1024" />

    
    <glyph glyph-name="youluPC_common_double_a3" unicode="&#58913;" d="M555.901248 96.807008a41.046987 41.046987 0 0 0-34.251129 62.793735l145.703213 227.253518-142.984869 221.544996A40.775153 40.775153 0 1 0 592.870719 651.349084l157.120255-244.650916a41.046987 41.046987 0 0 0 0-44.037165l-159.838598-249.272099a41.318821 41.318821 0 0 0-34.251128-16.581896zM396.334484 96.807008a40.775153 40.775153 0 0 0-34.251129 62.793735l145.431378 227.253518-142.984868 221.544996A40.775153 40.775153 0 1 0 433.032121 651.349084l157.392089-244.650916a41.046987 41.046987 0 0 0 0-44.037165l-159.838598-249.272099a41.318821 41.318821 0 0 0-34.251128-16.581896z"  horiz-adv-x="1082" />

    
    <glyph glyph-name="youluPC_common_location" unicode="&#58914;" d="M523.209776 884.529532A409.808554 409.808554 0 0 1 113.401222 474.720978c0-232.537678 286.761711-500.008147 380.87169-580.562119a43.535642 43.535642 0 0 1 57.613035 0c93.06721 81.857434 381.132383 354.020367 381.132383 580.301426A409.808554 409.808554 0 0 1 523.209776 884.529532z m0-561.270876a150.419552 150.419552 0 1 0 150.419552 150.419552 150.419552 150.419552 0 0 0-150.419552-151.20163z m0 0"  horiz-adv-x="1024" />

    
    <glyph glyph-name="youluPC_home_data_city" unicode="&#58915;" d="M630.784 25.6a29.952 29.952 0 0 0-29.952 30.208V705.28a59.904 59.904 0 0 1-59.904 59.904H168.96a59.904 59.904 0 0 1-59.904-59.904v-620.032h273.152a30.208 30.208 0 0 0 0-60.16h-332.8V705.28A120.32 120.32 0 0 0 168.96 825.344h371.968a120.064 120.064 0 0 0 119.808-120.064v-649.984A29.952 29.952 0 0 0 630.784 25.6zM902.656 25.6a29.952 29.952 0 0 0-29.952 30.208V454.144a35.328 35.328 0 0 1-35.072 35.072h-206.848a29.952 29.952 0 0 0 0 59.904h206.848a95.232 95.232 0 0 0 94.976-94.976v-398.848A29.952 29.952 0 0 0 902.656 25.6zM985.6 25.6h-947.2a30.208 30.208 0 0 0 0 60.16h947.2a30.208 30.208 0 0 0 0-60.16zM230.4 679.168m31.232 0l0 0q31.232 0 31.232-31.232l0-47.36q0-31.232-31.232-31.232l0 0q-31.232 0-31.232 31.232l0 47.36q0 31.232 31.232 31.232ZM416.768 679.168m31.232 0l0 0q31.232 0 31.232-31.232l0-47.36q0-31.232-31.232-31.232l0 0q-31.232 0-31.232 31.232l0 47.36q0 31.232 31.232 31.232ZM416.768 505.6m31.232 0l0 0q31.232 0 31.232-31.232l0-47.36q0-31.232-31.232-31.232l0 0q-31.232 0-31.232 31.232l0 47.36q0 31.232 31.232 31.232ZM735.488 448.768m31.232 0l0 0q31.232 0 31.232-31.232l0-47.36q0-31.232-31.232-31.232l0 0q-31.232 0-31.232 31.232l0 47.36q0 31.232 31.232 31.232ZM735.488 275.2m31.232 0l0 0q31.232 0 31.232-31.232l0-47.36q0-31.232-31.232-31.232l0 0q-31.232 0-31.232 31.232l0 47.36q0 31.232 31.232 31.232ZM230.4 332.032m31.232 0l0 0q31.232 0 31.232-31.232l0-47.36q0-31.232-31.232-31.232l0 0q-31.232 0-31.232 31.232l0 47.36q0 31.232 31.232 31.232Z"  horiz-adv-x="1024" />

    
    <glyph glyph-name="youluPC_common_search" unicode="&#58916;" d="M431.872 47.36a409.6 409.6 0 1 0 409.6 409.6 411.136 411.136 0 0 0-409.6-409.6z m0 731.904a321.28 321.28 0 1 1 321.024-321.28A321.536 321.536 0 0 1 431.872 779.264zM932.608-99.584a44.288 44.288 0 0 0-31.488 13.056l-228.864 228.864A44.8 44.8 0 1 0 735.744 204.8l228.608-228.608a44.8 44.8 0 0 0-31.744-76.8z"  horiz-adv-x="1024" />

    
    <glyph glyph-name="youluPC_common_refresh" unicode="&#58917;" d="M968.472505 684.578411a46.924644 46.924644 0 0 1-31.283096-7.820774l-55.00611-39.103869A475.763747 475.763747 0 0 1 513.564155 825.873727a455.169043 455.169043 0 1 1 0-910.077393A470.810591 470.810591 0 0 1 938.492872 190.305499a60.480652 60.480652 0 0 1 15.641548 39.364562 53.702648 53.702648 0 0 1-54.745418 55.00611 52.138493 52.138493 0 0 1-47.185336-31.543788 352.716904 352.716904 0 0 0-683.796334 117.832994A345.156823 345.156823 0 0 0 521.384929 716.1222a368.09776 368.09776 0 0 0 290.411405-149.11609h7.820774l-86.289206-55.00611c-8.081466-7.820774-15.90224-15.641548-15.90224-23.462322-7.820774-15.641548 7.820774-31.283096 23.723014-39.103869h23.462322L938.492872 426.753564h7.820774a41.710794 41.710794 0 0 1 31.543788 15.641548v8.081466l15.641548 203.861508c0 15.641548-7.820774 31.283096-23.723015 31.283095z m0 0"  horiz-adv-x="1024" />

    
    <glyph glyph-name="youluPC_home_data_partn" unicode="&#58918;" d="M633.400717 393.309216a272.641526 272.641526 0 0 1 85.43958 76.513057l1.275218 1.530261a259.379263 259.379263 0 0 1 28.054787 51.008705 263.459959 263.459959 0 0 1 20.913569 90.54045v14.027394a271.621352 271.621352 0 0 1-542.98766 0v-14.027394a269.581004 269.581004 0 0 1 20.913569-90.54045 288.964312 288.964312 0 0 1 28.054787-51.008705l1.275218-1.530261a275.447005 275.447005 0 0 1 85.43958-76.513057 467.494778 467.494778 0 0 1-331.55658-446.581209 28.054788 28.054788 0 0 1 56.109575 0 410.875116 410.875116 0 0 0 316.253969 399.143114l15.812698-70.136969-63.760881-260.909524a28.054788 28.054788 0 0 1 7.90635-27.289657l114.769585-107.88341a28.309831 28.309831 0 0 1 19.383308-7.651306 27.5447 27.5447 0 0 1 19.128264 7.651306l114.769585 107.88341a28.819918 28.819918 0 0 1 8.926524 27.289657l-63.250794 260.909524 15.812698 70.136969a410.620072 410.620072 0 0 0 316.253969-399.143114 28.309831 28.309831 0 0 1 56.364618 0 467.494778 467.494778 0 0 1-331.301536 446.581209z m-334.362059 153.026114c-2.040348 5.355914-4.080696 10.966871-5.866001 16.577829a14.537481 14.537481 0 0 0 0 3.570609 203.269688 203.269688 0 0 0-4.590783 17.853047v2.295392a169.093856 169.093856 0 0 0-2.805479 19.383307v20.913569a215.256733 215.256733 0 0 0 430.258423 0 191.282642 191.282642 0 0 0 0-20.913569c0-6.376088-1.785305-13.00722-2.805478-19.383307a7.651306 7.651306 0 0 1 0-2.550436q-1.785305-8.67148-4.590784-17.598003v-3.570609c-1.785305-5.610958-3.825653-10.966871-6.121044-16.577829a215.00169 215.00169 0 0 0-398.12294 0z m282.588224-528.960267l-83.399232-78.553405-83.399232 78.553405 56.109575 229.539171h54.32427zM524.752176 303.533896h-53.304096l-11.476959 51.008705a376.44424 376.44424 0 0 0 38.256529 2.040348c12.752176 0 25.504352 0 38.256528-2.040348z"  horiz-adv-x="1024" />

    
    <glyph glyph-name="youluPC_home_activity" unicode="&#58919;" d="M512-70.4A454.4 454.4 0 1 0 966.4 384 454.912 454.912 0 0 0 512-70.4z m0 844.8A390.4 390.4 0 1 1 902.4 384 390.912 390.912 0 0 1 512 774.4zM647.936 118.272a57.344 57.344 0 0 0-25.6 6.4L512 182.272l-109.568-57.6a56.576 56.576 0 0 0-82.176 59.648l20.992 122.88-88.576 85.76a56.576 56.576 0 0 0 31.232 96.512l122.624 17.664L460.8 618.24a55.808 55.808 0 0 0 51.2 31.488 55.808 55.808 0 0 0 51.2-31.488l54.784-111.104 122.624-17.664a56.576 56.576 0 0 0 31.232-96.512L682.752 307.2l20.992-122.112a56.576 56.576 0 0 0-55.808-66.048z m-135.936 128a56.576 56.576 0 0 0 25.6-6.4l99.584-52.48-18.944 111.104a57.088 57.088 0 0 0 16.384 51.2L716.8 428.288l-111.616 16.128A56.064 56.064 0 0 0 563.2 475.392l-51.2 101.12-49.92-101.12a56.32 56.32 0 0 0-42.496-30.976l-112.384-16.128 80.64-78.592a56.32 56.32 0 0 0 16.384-51.2l-19.2-111.104L486.4 240.896a56.576 56.576 0 0 0 25.6 6.4z m218.88 179.2zM614.4 507.648z"  horiz-adv-x="1024" />

    
    <glyph glyph-name="youluPC_home_house_pric" unicode="&#58921;" d="M78.592 128a34.56 34.56 0 0 0-21.504 61.696l305.152 241.92a34.56 34.56 0 0 0 47.36-4.096l153.6-169.984 358.4 321.536a34.56 34.56 0 1 0 46.08-51.2l-384-344.576a34.56 34.56 0 0 0-48.64 2.56l-155.648 171.52-279.296-222.208a35.328 35.328 0 0 0-21.504-7.168zM512 467.2a34.56 34.56 0 0 0-21.76 61.44L661.504 665.6a34.56 34.56 0 0 0 43.264-54.016l-170.752-136.704a34.304 34.304 0 0 0-22.016-7.68zM733.44 546.816a34.816 34.816 0 0 0-34.56 34.56v79.36h-79.104a34.56 34.56 0 0 0 0 69.12h113.664A34.56 34.56 0 0 0 768 695.296v-113.92a34.56 34.56 0 0 0-34.56-34.56zM708.864-75.264h-391.68A274.944 274.944 0 0 0 42.496 199.424V568.576A274.944 274.944 0 0 0 317.184 843.264h391.68a274.944 274.944 0 0 0 274.688-274.688v-369.152a274.944 274.944 0 0 0-274.688-274.688zM317.184 774.144a204.8 204.8 0 0 1-204.8-204.8v-369.92a204.8 204.8 0 0 1 204.8-204.8h391.68a204.8 204.8 0 0 1 204.8 204.8V568.576a204.8 204.8 0 0 1-204.8 204.8z"  horiz-adv-x="1024" />

    
    <glyph glyph-name="youluPC_home_data_user" unicode="&#58922;" d="M353.792 437.248a198.144 198.144 0 1 0 198.144 198.144 198.144 198.144 0 0 0-198.144-198.144z m0 335.104a136.96 136.96 0 1 1 136.96-136.96 137.216 137.216 0 0 1-136.96 136.96zM353.792-40.96c-147.456 0-349.44 0-349.44 174.848 0 150.272 156.928 272.384 349.44 272.384s349.696-122.112 349.696-272.384c0-174.848-201.984-174.848-349.696-174.848z m0 386.048c-158.976 0-288.256-94.72-288.256-211.2 0-96.256 97.024-113.664 288.256-113.664s288.512 17.408 288.512 113.664c0 116.48-130.304 211.2-288.512 211.2zM748.8 402.432a156.928 156.928 0 1 0 156.672 156.672 156.928 156.928 0 0 0-156.672-156.672z m0 252.416A95.744 95.744 0 1 1 844.8 559.104a95.744 95.744 0 0 1-96 95.744zM748.8 9.472a30.464 30.464 0 1 0 0 60.928c160.768 0 209.664 18.944 209.664 81.408 0 86.272-93.952 156.416-209.664 156.416a266.752 266.752 0 0 1-64-7.424 30.464 30.464 0 1 0-14.336 59.392 332.8 332.8 0 0 0 78.336 9.216c149.248 0 270.848-97.536 270.848-217.6 0-142.336-163.072-142.336-270.848-142.336z"  horiz-adv-x="1024" />

    
    <glyph glyph-name="youluPC_home_data_house" unicode="&#58923;" d="M975.616 426.496a27.648 27.648 0 0 0-17.408 5.888L526.848 766.72 524.032 768a16.64 16.64 0 0 1-12.032 5.888 15.104 15.104 0 0 1-12.288-4.864l-2.56-2.304L65.792 432.384a28.16 28.16 0 1 0-34.56 44.544L460.8 810.496a71.936 71.936 0 0 0 51.2 19.968 73.216 73.216 0 0 0 51.2-19.968l430.08-332.8a28.16 28.16 0 0 0-17.152-51.2zM787.712-62.464H236.288a120.064 120.064 0 0 0-116.992 122.624V409.6a28.416 28.416 0 0 0 56.576 0v-349.44a63.488 63.488 0 0 1 60.416-66.048h551.424a63.488 63.488 0 0 1 60.416 66.048v358.4a28.416 28.416 0 1 0 56.576 0v-358.4a120.064 120.064 0 0 0-116.992-122.624zM512 349.44a27.648 27.648 0 0 0-19.968 8.448l-112.896 112.64a28.16 28.16 0 1 0 39.936 39.936l112.896-112.64a28.416 28.416 0 0 0-19.968-48.384zM512 349.44a27.648 27.648 0 0 0-19.968 8.448 28.16 28.16 0 0 0 0 39.936l112.64 112.64a28.16 28.16 0 1 0 39.936-39.936L532.224 358.4a28.16 28.16 0 0 0-20.224-8.96zM653.312 318.72h-281.6a28.416 28.416 0 0 0 0 56.576h281.6a28.416 28.416 0 0 0 0-56.576zM654.08 204.8h-281.6a28.416 28.416 0 0 0 0 56.576h281.6a28.416 28.416 0 0 0 0-56.576zM512 93.184a28.416 28.416 0 0 0-28.416 28.416v225.536a28.416 28.416 0 0 0 56.576 0v-225.536a28.416 28.416 0 0 0-28.16-28.416z"  horiz-adv-x="1024" />

    
    <glyph glyph-name="home_process_questio" unicode="&#58926;" d="M462.90221 341.661172l54.244999-284.81224-90.431439-81.384829-90.396777 81.384829 54.244998 284.81224M421.897844 396.183461a249.908269 249.908269 0 1 0 249.908269 249.90827 250.220221 250.220221 0 0 0-249.908269-249.90827z m0 451.637275a201.729005 201.729005 0 1 1 201.729005-201.729005 201.971635 201.971635 0 0 1-201.729005 201.729005zM419.402227-128c-102.632231 0-208.418644 3.639441-287.134549 30.155367C44.470501-68.278509 0-12.127137 0 69.604306c0 82.632637 44.71313 159.754121 125.924652 217.153302 78.681244 55.458146 182.838574 86.237417 293.33893 86.237416a579.745591 579.745591 0 0 0 102.146972-9.011948 24.089632 24.089632 0 1 0-8.422706-47.416715 529.798599 529.798599 0 0 1-93.585621 8.249399c-204.501912 0-371.084318-114.382426-371.084318-255.211454 0-61.073283 30.640626-98.611515 99.339404-121.765292 72.303558-24.262939 177.951325-27.729073 271.744914-27.729073 91.991199 0 195.801916 3.154182 268.00149 26.411942a24.262939 24.262939 0 1 0 14.800392-45.856954c-78.715906-25.233456-187.171242-28.664929-282.801882-28.664929zM1043.964932 587.063467h-250.98277a111.505534 111.505534 0 0 1-111.470873-111.505534v-50.085638l-73.724673-60.588025 436.00501-0.831872a111.505534 111.505534 0 1 1 0.173306 223.011069z m0 0M1043.964932 605.329994h-250.98277a129.910706 129.910706 0 0 1-129.772061-129.772061v-41.59361L596.175067 379.026098a18.301188 18.301188 0 0 1 11.576888-32.443016l436.005009-0.797211h0.207968a129.772061 129.772061 0 0 1 0 259.544123z m65.856549-195.663271a92.580442 92.580442 0 0 0-65.856549-27.313137L658.738788 383.012152l34.38405 28.248993a18.266527 18.266527 0 0 1 6.654977 14.141827V475.557933a93.30833 93.30833 0 0 0 93.204347 93.204346h250.98277a93.169685 93.169685 0 0 0 65.856549-159.095556zM1033.254578 493.928443H998.246624a18.301188 18.301188 0 1 1 0-36.602376h35.007954a18.301188 18.301188 0 0 1 0 36.602376zM935.578919 493.928443h-35.042616a18.301188 18.301188 0 0 1 0-36.602376h35.042616a18.301188 18.301188 0 0 1 0 36.602376zM837.868598 493.928443h-35.007954a18.301188 18.301188 0 0 1 0-36.602376h35.007954a18.301188 18.301188 0 0 1 0 36.602376zM755.617236 203.293098a18.301188 18.301188 0 1 1 0-36.567715h230.393934a18.301188 18.301188 0 1 1 0 36.567715zM1180.981214 92.619436l-436.039671-0.762549a93.204346 93.204346 0 1 0 0 186.374031h250.982771a93.30833 93.30833 0 0 0 93.204346-93.204347v-12.270114a18.301188 18.301188 0 1 1 36.567715 0v12.270114a129.910706 129.910706 0 0 1-129.772061 129.806723h-251.121417a129.806722 129.806722 0 0 1 0-259.578784h0.207969l436.005009 0.831873a18.301188 18.301188 0 1 1 0 36.567714zM426.71577-48.625529a24.020309 24.020309 0 0 0-16.117523 6.169719l-90.431439 81.384829a24.262939 24.262939 0 0 0-7.521511 22.425887l54.244999 284.81224a24.089632 24.089632 0 1 0 47.31273-9.011948l-51.680059-271.502285 64.192803-57.780456 64.227465 57.780456-51.714721 271.502285a24.089632 24.089632 0 1 0 47.312731 9.011948L540.716921 61.354906a24.262939 24.262939 0 0 0-7.556172-22.425887l-90.431439-81.384829a23.950987 23.950987 0 0 0-16.01354-6.169719z"  horiz-adv-x="1200" />

    
    <glyph glyph-name="process_cal_loan" unicode="&#58927;" d="M196.463221 860.837784C145.346073 854.701272 103.924615 803.553441 103.924615 709.450025V18.478734c0-53.663801 32.155325-99.687643 111.960667-99.687643-30.682562-16.629948-121.472262-16.629948-121.472262-16.629949L29.672815-1.342201V808.247873L94.41302 872.988079zM481.289442-120.758731H144.548326A138.071528 138.071528 0 0 0 6.660894 17.128701V758.112567A138.071528 138.071528 0 0 0 144.548326 896h576.065097a138.071528 138.071528 0 0 0 137.887433-137.887433v-309.402952a23.011921 23.011921 0 0 0-46.023843 0V758.112567A92.047685 92.047685 0 0 1 720.613423 849.976157H144.548326A92.047685 92.047685 0 0 1 52.684736 758.112567v-740.983866a92.047685 92.047685 0 0 1 91.86359-91.86359h336.741116a23.011921 23.011921 0 0 0 0-46.023842zM856.721267-92.653505A208.457325 208.457325 0 1 0 942.908583-33.681621M785.997962-127.999816a231.315833 231.315833 0 1 0 174.307634 79.222375 23.011921 23.011921 0 1 0-34.671295 30.253005 184.709022 184.709022 0 1 1-76.706404-52.497863 23.011921 23.011921 0 0 0 15.648106-43.293094 230.824912 230.824912 0 0 0-78.578041-13.684423zM164.737452 485.620737m30.682562 0l40.899855 0q30.682562 0 30.682561-30.682562l0-12.487803q0-30.682562-30.682561-30.682562l-40.899855 0q-30.682562 0-30.682562 30.682562l0 12.487803q0 30.682562 30.682562 30.682562ZM378.993781 485.620737m30.682561 0l40.899855 0q30.682562 0 30.682562-30.682562l0-12.487803q0-30.682562-30.682562-30.682562l-40.899855 0q-30.682562 0-30.682561 30.682562l0 12.487803q0 30.682562 30.682561 30.682562ZM581.007767 485.620737m30.682562 0l40.899855 0q30.682562 0 30.682562-30.682562l0-12.487803q0-30.682562-30.682562-30.682562l-40.899855 0q-30.682562 0-30.682562 30.682562l0 12.487803q0 30.682562 30.682562 30.682562ZM164.737452 311.650611m30.682562 0l40.899855 0q30.682562 0 30.682561-30.682561l0-12.487803q0-30.682562-30.682561-30.682562l-40.899855 0q-30.682562 0-30.682562 30.682562l0 12.487803q0 30.682562 30.682562 30.682561ZM378.993781 311.650611m30.682561 0l40.899855 0q30.682562 0 30.682562-30.682561l0-12.487803q0-30.682562-30.682562-30.682562l-40.899855 0q-30.682562 0-30.682561 30.682562l0 12.487803q0 30.682562 30.682561 30.682561ZM164.737452 137.680486m30.682562 0l40.899855 0q30.682562 0 30.682561-30.682561l0-12.487803q0-30.682562-30.682561-30.682562l-40.899855 0q-30.682562 0-30.682562 30.682562l0 12.487803q0 30.682562 30.682562 30.682561ZM378.993781 137.680486m30.682561 0l40.899855 0q30.682562 0 30.682562-30.682561l0-12.487803q0-30.682562-30.682562-30.682562l-40.899855 0q-30.682562 0-30.682561 30.682562l0 12.487803q0 30.682562 30.682561 30.682561ZM168.66482 755.412502m47.650018 0l430.752485 0q47.650018 0 47.650018-47.650018l0-43.569238q0-47.650018-47.650018-47.650018l-430.752485 0q-47.650018 0-47.650018 47.650018l0 43.569238q0 47.650018 47.650018 47.650018ZM647.067323 593.531306H216.284156a70.723305 70.723305 0 0 0-70.569892 70.569892V707.762484a70.723305 70.723305 0 0 0 70.569892 70.569892h430.783167a70.723305 70.723305 0 0 0 70.569892-70.569892v-43.569238a70.723305 70.723305 0 0 0-70.569892-70.66194zM216.284156 732.400581a24.546049 24.546049 0 0 1-24.54605-24.54605v-43.569237a24.546049 24.546049 0 0 1 24.54605-24.54605h430.783167a24.546049 24.546049 0 0 1 24.546049 24.54605V707.762484a24.546049 24.546049 0 0 1-24.546049 24.546049zM785.691137 117.36863a22.950556 22.950556 0 0 0-16.261758 6.750164l-64.43338 64.43338a23.011921 23.011921 0 0 0 32.523516 32.523515l64.433379-64.43338a23.042604 23.042604 0 0 0-16.29244-39.304361zM785.691137 117.36863a23.042604 23.042604 0 0 0-16.261758 39.181632l64.43338 64.433379a23.011921 23.011921 0 0 0 32.554198-32.523515l-64.43338-64.43338a23.073286 23.073286 0 0 0-16.29244-6.658116zM866.416957 99.787523h-161.359593a23.011921 23.011921 0 0 0 0 46.023842h161.359593a23.011921 23.011921 0 1 0 0-46.023842zM866.81583 35.292778h-161.359592a23.011921 23.011921 0 0 0 0 46.023842h161.359592a23.011921 23.011921 0 0 0 0-46.023842zM785.691137-21.408596a23.011921 23.011921 0 0 0-23.011922 23.011921V122.799444a23.011921 23.011921 0 1 0 46.023843 0v-121.042706a23.011921 23.011921 0 0 0-23.011921-23.165334z"  horiz-adv-x="1024" />

    
    <glyph glyph-name="process_cal_exchange" unicode="&#58928;" d="M198.608305 860.837783C147.491155 854.701271 106.069696 803.553439 106.069696 709.450019V18.478708c0-53.663802 32.155326-99.687646 111.960671-99.687647-30.682563-16.629949-121.472266-16.629949-121.472266-16.629948L31.817894-1.342228V808.247871L96.558101 872.988078zM483.434534-120.758762H146.693409A138.071532 138.071532 0 0 0 8.805972 17.128675V758.112563A138.071532 138.071532 0 0 0 146.693409 896h576.065114a138.071532 138.071532 0 0 0 137.887437-137.887437v-309.402962a23.011922 23.011922 0 0 0-46.023844 0V758.112563A92.047688 92.047688 0 0 1 722.758523 849.976156H146.693409A92.047688 92.047688 0 0 1 54.829816 758.112563v-740.983888a92.047688 92.047688 0 0 1 91.863593-91.863593h336.741125a23.011922 23.011922 0 0 0 0-46.023844zM854.632177-92.653534A208.457331 208.457331 0 1 0 940.819496-33.681649M783.847505-127.999847a231.31584 231.31584 0 1 0 174.307639 79.222377 23.011922 23.011922 0 1 0-34.671296 30.253007 184.709027 184.709027 0 1 1-76.706407-52.497865 23.011922 23.011922 0 0 0 15.617425-43.293096 230.794236 230.794236 0 0 0-78.547361-13.684423zM876.079289 123.597167h-184.463567a23.011922 23.011922 0 1 0 0 46.023844h136.568086l-14.359439 17.887934a23.011922 23.011922 0 1 0 35.929281 28.780244l44.30562-55.228613a23.042605 23.042605 0 0 0-17.979981-37.402044zM735.982707-4.441167a22.950557 22.950557 0 0 0-17.979981 8.6218l-44.305621 55.228613a23.011922 23.011922 0 0 0 17.979982 37.402044h184.463567a23.011922 23.011922 0 0 0 0-46.023844h-136.629452l14.35944-17.887934a23.011922 23.011922 0 0 0-17.887935-37.340679zM166.882535 485.620724m30.682563 0l40.899856 0q30.682563 0 30.682562-30.682562l0-12.487803q0-30.682563-30.682562-30.682563l-40.899856 0q-30.682563 0-30.682563 30.682563l0 12.487803q0 30.682563 30.682563 30.682562ZM381.13887 485.620724m30.682563 0l40.899856 0q30.682563 0 30.682563-30.682562l0-12.487803q0-30.682563-30.682563-30.682563l-40.899856 0q-30.682563 0-30.682563 30.682563l0 12.487803q0 30.682563 30.682563 30.682562ZM583.152863 485.620724m30.682563 0l40.899856 0q30.682563 0 30.682562-30.682562l0-12.487803q0-30.682563-30.682562-30.682563l-40.899856 0q-30.682563 0-30.682563 30.682563l0 12.487803q0 30.682563 30.682563 30.682562ZM166.882535 311.650594m30.682563 0l40.899856 0q30.682563 0 30.682562-30.682563l0-12.487803q0-30.682563-30.682562-30.682562l-40.899856 0q-30.682563 0-30.682563 30.682562l0 12.487803q0 30.682563 30.682563 30.682563ZM381.13887 311.650594m30.682563 0l40.899856 0q30.682563 0 30.682563-30.682563l0-12.487803q0-30.682563-30.682563-30.682562l-40.899856 0q-30.682563 0-30.682563 30.682562l0 12.487803q0 30.682563 30.682563 30.682563ZM166.882535 137.680464m30.682563 0l40.899856 0q30.682563 0 30.682562-30.682563l0-12.487803q0-30.682563-30.682562-30.682563l-40.899856 0q-30.682563 0-30.682563 30.682563l0 12.487803q0 30.682563 30.682563 30.682563ZM381.13887 137.680464m30.682563 0l40.899856 0q30.682563 0 30.682563-30.682563l0-12.487803q0-30.682563-30.682563-30.682563l-40.899856 0q-30.682563 0-30.682563 30.682563l0 12.487803q0 30.682563 30.682563 30.682563ZM170.809903 755.412498m47.65002 0l430.752497 0q47.65002 0 47.65002-47.65002l0-43.569239q0-47.65002-47.65002-47.65002l-430.752497 0q-47.65002 0-47.65002 47.65002l0 43.569239q0 47.65002 47.65002 47.65002ZM649.21242 593.531297H218.42924a70.723307 70.723307 0 0 0-70.569894 70.569894V707.762478a70.723307 70.723307 0 0 0 70.569894 70.569894h430.78318a70.723307 70.723307 0 0 0 70.569894-70.569894v-43.569239a70.723307 70.723307 0 0 0-70.569894-70.661942zM218.42924 732.400576a24.54605 24.54605 0 0 1-24.54605-24.54605v-43.569239a24.54605 24.54605 0 0 1 24.54605-24.54605h430.78318a24.54605 24.54605 0 0 1 24.54605 24.54605V707.762478a24.54605 24.54605 0 0 1-24.54605 24.54605z"  horiz-adv-x="1024" />

    
    <glyph glyph-name="process_call" unicode="&#58929;" d="M518.897772 871.097218q-20.722459 0-41.086604-1.731848a482.707879 482.707879 0 0 0 0-961.922202q20.334286-1.701989 41.086604-1.731848a482.707879 482.707879 0 1 1 0 965.385898zM707.490062 608.662507c29.859451-51.746428 41.803231-143.325363 25.888144-201.043682s-197.072374-198.027877-244.190587-233.859217-151.267977-5.016388-177.813029 42.519858c-37.175016-16.661573-43.803814-46.013413-43.803814-46.013414s-5.733015-92.415 115.376917-76.858226 242.309442 81.934333 288.711028 144.997493 135.800781 153.626874 134.516826 214.988044-52.881087 184.083513-66.825451 194.564181-31.860034-39.295037-31.860034-39.295037zM512.000239-128H510.596845c-96.237009 5.97189-174.140316 59.061993-198.475769 135.293171-10.689683 33.502304-10.241792 70.856476 1.313816 107.971773a22.394588 22.394588 0 1 0 42.758733-13.287455c-5.97189-19.766956-11.346591-49.835423-1.403394-81.068409 18.333703-57.419724 81.725316-99.222954 157.896775-104.149764 257.269027 0.388173 466.494197 209.82236 466.494197 467.210825S769.627579 851.210824 512.000239 851.210824 44.789415 641.62734 44.789415 384a466.135884 466.135884 0 0 1 69.57252-245.414825 22.394588 22.394588 0 0 0-38.100659-23.559106A510.775763 510.775763 0 0 0 0.000239 384C0.000239 666.321106 229.679133 896 512.000239 896s512-229.678894 512-512S794.261626-128 512.000239-128zM418.659596 72.745087a292.622616 292.622616 0 0 0-90.832449 14.63113 281.604479 281.604479 0 0 0-53.926167 24.305593 65.989386 65.989386 0 0 0-32.606521 50.970082 67.989969 67.989969 0 0 0 22.155713 57.270427l104.060185 93.370502a67.810812 67.810812 0 0 0 88.59299 1.343675l16.30326-13.735347L603.161142 431.566105l-13.974223 16.542136a67.870531 67.870531 0 0 0 1.104799 88.324254l96.893918 109.046714a67.96011 67.96011 0 0 0 57.927334 22.394588 65.690791 65.690791 0 0 0 50.999942-33.382866c59.091853-104.657374 45.804397-241.443518-30.934391-318.182306l-177.544294-177.514434c-42.758733-42.788593-103.044964-66.049105-168.974631-66.049104z m-5.97189 212.987461a22.633464 22.633464 0 0 1-15.168601-5.792733l-104.149764-93.370503a22.752901 22.752901 0 0 1-7.524581-19.438502 21.827258 21.827258 0 0 1 10.689683-16.810871 236.098676 236.098676 0 0 1 45.326646-20.394004 246.280749 246.280749 0 0 1 47.954278-10.659824c65.302619-7.763457 125.857584 10.898699 166.167843 51.179098l177.514434 177.544294c30.755234 30.755234 49.835423 75.096518 53.747011 124.902082A247.176532 247.176532 0 0 1 757.116469 612.335219a21.588383 21.588383 0 0 1-16.601854 11.018137 22.782761 22.782761 0 0 1-19.677378-7.61416l-96.893918-109.136292a22.902199 22.902199 0 0 1-0.388173-29.85945l40.399837-47.775121-188.831166-188.801307-47.775121 40.25054a22.603604 22.603604 0 0 1-14.750568 5.314982z m159.210591-131.112848zM349.355811 452.796174a22.394588 22.394588 0 0 0-22.394588 22.394588 103.462996 103.462996 0 0 0 103.343559 103.313699 22.394588 22.394588 0 0 0 0-44.789176 58.614102 58.614102 0 0 1-58.554383-58.524523 22.364729 22.364729 0 0 0-22.394588-22.394588zM253.805569 452.796174a22.394588 22.394588 0 0 0-22.394588 22.394588 199.043098 199.043098 0 0 0 198.804223 198.804223 22.394588 22.394588 0 0 0 0-44.789176 154.194203 154.194203 0 0 1-154.015047-154.015047 22.394588 22.394588 0 0 0-22.394588-22.394588z"  horiz-adv-x="1024" />

    
    <glyph glyph-name="process_house_price" unicode="&#58930;" d="M122.659419 475.047489h174.077597a28.144687 28.144687 0 0 0 28.009377-28.144688v-536.880208H94.514731V446.902801a28.144687 28.144687 0 0 0 28.144688 28.144688zM448.488299-84.734106V832.539142A38.191529 38.191529 0 0 0 486.544517 870.629188h154.220709a38.191529 38.191529 0 0 0 38.090046-38.090046v-921.366405M802.461867-84.734106v690.086085a38.157701 38.157701 0 0 0 38.056218 38.056217h154.220709a38.157701 38.157701 0 0 0 38.090046-38.056217v-690.086085M350.252516-115.449702h-281.108597V446.902801a53.583155 53.583155 0 0 0 53.5155 53.515499h174.077597a53.583155 53.583155 0 0 0 53.5155-53.515499z m-230.366973 50.741624h179.625349V446.902801a2.841531 2.841531 0 0 1-2.773876 2.773876H122.659419a2.841531 2.841531 0 0 1-2.773876-2.773876zM1032.82884-114.198075H25.370812a25.370812 25.370812 0 0 0 0 50.741624h1007.458028a25.370812 25.370812 0 1 0 0-50.741624zM678.855272-114.198075a25.370812 25.370812 0 0 0-25.370812 25.370812V832.539142a12.888372 12.888372 0 0 1-12.719234 12.719234h-154.220709a12.888372 12.888372 0 0 1-12.685406-12.719234v-917.23942a25.370812 25.370812 0 1 0-50.741624 0V832.539142A63.494685 63.494685 0 0 0 486.544517 896h154.220709a63.494685 63.494685 0 0 0 63.460858-63.460858v-921.366405a25.336984 25.336984 0 0 0-25.370812-25.370812zM1032.82884-110.07109a25.370812 25.370812 0 0 0-25.370812 25.370812v690.086084a12.888372 12.888372 0 0 1-12.719234 12.685406h-154.220709a12.854545 12.854545 0 0 1-12.685406-12.685406v-690.086084a25.370812 25.370812 0 0 0-50.741624 0v690.086084a63.494685 63.494685 0 0 0 63.42703 63.42703h154.220709a63.494685 63.494685 0 0 0 63.460858-63.42703v-690.086084a25.336984 25.336984 0 0 0-25.370812-25.370812zM827.697368 272.182476m-233.411469 0a233.41147 233.41147 0 1 1 466.822939 0 233.41147 233.41147 0 1 1-466.822939 0ZM827.697368 13.400195a258.782282 258.782282 0 1 0 258.782282 258.782281 259.052904 259.052904 0 0 0-258.782282-258.782281z m0 466.822939a208.040658 208.040658 0 1 1 208.040658-208.040658 208.243624 208.243624 0 0 1-208.040658 208.040658zM965.410135 298.73726a25.438467 25.438467 0 0 0-23.679424 16.440286 121.982864 121.982864 0 0 1-94.142626 77.194923 25.370812 25.370812 0 0 0 8.186315 50.065069 172.825971 172.825971 0 0 0 133.450471-109.365113 25.438467 25.438467 0 0 0-23.679425-34.335165zM1174.161176-16.063775l-154.931092 154.931092a234.832235 234.832235 0 0 0-74.759325-68.737987l157.941761-157.941761a50.741624 50.741624 0 1 1 71.748656 71.748656zM1138.303762-127.999797a75.841814 75.841814 0 0 0-53.819949 22.224831L903.200905 75.54177l28.584448 16.541769a210.476256 210.476256 0 0 1 66.674493 61.295882l17.319808 24.863396 176.377884-176.344057a76.078608 76.078608 0 0 0-53.819949-129.898557zM984.387503 66.239139l136.089035-136.122863a25.370812 25.370812 0 1 1 35.891242 35.891242L1021.598027 100.777271a266.495008 266.495008 0 0 0-37.210524-34.538132z"  horiz-adv-x="1214" />

    
    </font>
</defs>
</svg>
